<?xml version="1.0" standalone="no"?>
<!DOCTYPE svg PUBLIC "-//W3C//DTD SVG 20010904//EN"
 "http://www.w3.org/TR/2001/REC-SVG-20010904/DTD/svg10.dtd">
<svg version="1.0" xmlns="http://www.w3.org/2000/svg"
 width="1965.000000pt" height="1777.000000pt" viewBox="0 0 1965.000000 1777.000000"
 preserveAspectRatio="xMidYMid meet">
<metadata>
Created by potrace 1.16, written by Peter Selinger 2001-2019
</metadata>
<g transform="translate(0.000000,1777.000000) scale(0.100000,-0.100000)"
fill="#000000" stroke="none">
<path d="M10790 15570 c0 -11 -7 -20 -15 -20 -8 0 -15 -7 -15 -15 0 -8 7 -15
15 -15 8 0 15 -7 15 -15 0 -13 34 -15 245 -15 211 0 245 -2 245 -15 0 -12 16
-15 80 -15 64 0 80 -3 80 -15 0 -8 7 -15 15 -15 8 0 15 -7 15 -15 0 -8 7 -15
15 -15 8 0 15 -7 15 -15 0 -8 9 -15 20 -15 11 0 20 -7 20 -15 0 -10 10 -15 30
-15 20 0 30 -5 30 -15 0 -8 7 -15 15 -15 8 0 15 -7 15 -15 0 -10 11 -15 35
-15 24 0 35 -5 35 -15 0 -10 10 -15 30 -15 20 0 30 -5 30 -15 0 -8 9 -15 20
-15 11 0 20 -7 20 -15 0 -8 7 -15 15 -15 8 0 15 -7 15 -15 0 -10 10 -15 30
-15 23 0 30 -4 30 -20 0 -13 7 -20 20 -20 11 0 20 -7 20 -15 0 -10 10 -15 30
-15 20 0 30 -5 30 -15 0 -10 11 -15 35 -15 24 0 35 -5 35 -15 0 -8 7 -15 15
-15 8 0 15 -7 15 -15 0 -8 7 -15 15 -15 8 0 15 -7 15 -15 0 -10 11 -15 35 -15
24 0 35 -5 35 -15 0 -8 7 -15 15 -15 8 0 15 -7 15 -15 0 -10 10 -15 30 -15 27
0 30 -3 30 -30 0 -23 4 -30 20 -30 11 0 20 -7 20 -15 0 -10 10 -15 30 -15 20
0 30 -5 30 -15 0 -10 11 -15 35 -15 24 0 35 -5 35 -15 0 -8 7 -15 15 -15 8 0
15 -7 15 -15 0 -8 7 -15 15 -15 10 0 15 -11 15 -35 0 -33 2 -35 35 -35 32 0
35 -2 35 -30 0 -27 3 -30 30 -30 20 0 30 -5 30 -15 0 -8 7 -15 15 -15 8 0 15
-7 15 -15 0 -10 11 -15 35 -15 32 0 35 -2 35 -30 0 -20 5 -30 15 -30 8 0 15
-7 15 -15 0 -10 11 -15 35 -15 32 0 35 -2 35 -30 0 -27 3 -30 30 -30 20 0 30
-5 30 -15 0 -8 7 -15 15 -15 10 0 15 -10 15 -30 0 -28 3 -30 35 -30 33 0 35
-2 35 -35 0 -24 5 -35 15 -35 8 0 15 -7 15 -15 0 -8 7 -15 15 -15 8 0 15 -7
15 -15 0 -8 9 -15 20 -15 11 0 20 -7 20 -15 0 -8 7 -15 15 -15 10 0 15 -10 15
-30 0 -27 3 -30 30 -30 27 0 30 -3 30 -30 0 -23 4 -30 20 -30 11 0 20 -7 20
-15 0 -8 7 -15 15 -15 10 0 15 -10 15 -30 0 -20 5 -30 15 -30 10 0 15 -10 15
-30 0 -28 3 -30 35 -30 28 0 35 -4 35 -20 0 -11 7 -20 15 -20 11 0 15 -12 15
-45 0 -33 4 -45 15 -45 8 0 15 -7 15 -15 0 -8 7 -15 15 -15 10 0 15 -10 15
-30 0 -23 4 -30 20 -30 16 0 20 -7 20 -30 0 -20 5 -30 15 -30 8 0 15 -7 15
-15 0 -8 7 -15 15 -15 11 0 15 -12 15 -45 0 -33 4 -45 15 -45 12 0 15 -14 15
-65 0 -58 2 -65 20 -65 17 0 20 -7 20 -45 0 -33 4 -45 15 -45 10 0 15 -10 15
-30 0 -20 5 -30 15 -30 12 0 15 -13 15 -60 0 -47 3 -60 15 -60 12 0 15 -14 15
-65 0 -58 2 -65 20 -65 20 0 20 -7 20 -475 0 -468 0 -475 -20 -475 -18 0 -20
-7 -20 -75 0 -60 -3 -75 -15 -75 -10 0 -15 -10 -15 -30 0 -20 -5 -30 -15 -30
-10 0 -15 -11 -15 -35 0 -24 -5 -35 -15 -35 -11 0 -15 -12 -15 -45 0 -38 -3
-45 -20 -45 -11 0 -20 -7 -20 -15 0 -8 -7 -15 -15 -15 -12 0 -15 -17 -15 -90
0 -73 -3 -90 -15 -90 -8 0 -15 -7 -15 -15 0 -8 -7 -15 -15 -15 -10 0 -15 -10
-15 -30 0 -23 -4 -30 -20 -30 -16 0 -20 -7 -20 -35 0 -24 -5 -35 -15 -35 -8 0
-15 -7 -15 -15 0 -8 -7 -15 -15 -15 -8 0 -15 -7 -15 -15 0 -8 -7 -15 -15 -15
-11 0 -15 -12 -15 -45 0 -38 -3 -45 -20 -45 -16 0 -20 -7 -20 -30 0 -20 -5
-30 -15 -30 -10 0 -15 -10 -15 -30 0 -20 -5 -30 -15 -30 -8 0 -15 -7 -15 -15
0 -8 -7 -15 -15 -15 -8 0 -15 -7 -15 -15 0 -8 -9 -15 -20 -15 -16 0 -20 -7
-20 -35 0 -24 -5 -35 -15 -35 -8 0 -15 -7 -15 -15 0 -8 -7 -15 -15 -15 -8 0
-15 -7 -15 -15 0 -8 -7 -15 -15 -15 -10 0 -15 -10 -15 -30 0 -23 -4 -30 -20
-30 -11 0 -20 -7 -20 -15 0 -8 -7 -15 -15 -15 -8 0 -15 -7 -15 -15 0 -8 -7
-15 -15 -15 -8 0 -15 -7 -15 -15 0 -8 -7 -15 -15 -15 -8 0 -15 -7 -15 -15 0
-8 -9 -15 -20 -15 -11 0 -20 -7 -20 -15 0 -8 -7 -15 -15 -15 -8 0 -15 -7 -15
-15 0 -8 -7 -15 -15 -15 -8 0 -15 -7 -15 -15 0 -8 -7 -15 -15 -15 -8 0 -15 -7
-15 -15 0 -8 -9 -15 -20 -15 -11 0 -20 -7 -20 -15 0 -8 -7 -15 -15 -15 -10 0
-15 -11 -15 -35 0 -24 -5 -35 -15 -35 -8 0 -15 -7 -15 -15 0 -8 -7 -15 -15
-15 -8 0 -15 -7 -15 -15 0 -10 -11 -15 -35 -15 -24 0 -35 -5 -35 -15 0 -8 -7
-15 -15 -15 -8 0 -15 -7 -15 -15 0 -8 -7 -15 -15 -15 -10 0 -15 -10 -15 -30 0
-23 -4 -30 -20 -30 -11 0 -20 -7 -20 -15 0 -10 -10 -15 -30 -15 -20 0 -30 -5
-30 -15 0 -8 -7 -15 -15 -15 -8 0 -15 -7 -15 -15 0 -8 -9 -15 -20 -15 -11 0
-20 -7 -20 -15 0 -8 -7 -15 -15 -15 -8 0 -15 -7 -15 -15 0 -8 -7 -15 -15 -15
-8 0 -15 -9 -15 -20 0 -11 -7 -20 -15 -20 -8 0 -15 -7 -15 -15 0 -10 -11 -15
-35 -15 -24 0 -35 -5 -35 -15 0 -8 -7 -15 -15 -15 -8 0 -15 -7 -15 -15 0 -8
-7 -15 -15 -15 -8 0 -15 -7 -15 -15 0 -10 -11 -15 -35 -15 -24 0 -35 -5 -35
-15 0 -10 -10 -15 -30 -15 -20 0 -30 -5 -30 -15 0 -10 -11 -15 -35 -15 -24 0
-35 -5 -35 -15 0 -10 -10 -15 -30 -15 -20 0 -30 -5 -30 -15 0 -8 -9 -15 -20
-15 -11 0 -20 -7 -20 -15 0 -8 -7 -15 -15 -15 -8 0 -15 -7 -15 -15 0 -8 -7
-15 -15 -15 -8 0 -15 -7 -15 -15 0 -10 -11 -15 -35 -15 -24 0 -35 -5 -35 -15
0 -11 -12 -15 -45 -15 -33 0 -45 -4 -45 -15 0 -10 -11 -15 -35 -15 -28 0 -35
-4 -35 -20 0 -17 -7 -20 -50 -20 -38 0 -50 -4 -50 -15 0 -8 -7 -15 -15 -15 -8
0 -15 -7 -15 -15 0 -11 -12 -15 -50 -15 -38 0 -50 -4 -50 -15 0 -8 -7 -15 -15
-15 -8 0 -15 -7 -15 -15 0 -12 -14 -15 -65 -15 -51 0 -65 -3 -65 -15 0 -11
-12 -15 -50 -15 -38 0 -50 -4 -50 -15 0 -11 -12 -15 -45 -15 -33 0 -45 -4 -45
-15 0 -11 -12 -15 -50 -15 -38 0 -50 -4 -50 -15 0 -10 -11 -15 -35 -15 -24 0
-35 -5 -35 -15 0 -10 -10 -15 -30 -15 -20 0 -30 -5 -30 -15 0 -12 -16 -15 -80
-15 -64 0 -80 -3 -80 -15 0 -10 -11 -15 -35 -15 -24 0 -35 -5 -35 -15 0 -11
-12 -15 -50 -15 -38 0 -50 -4 -50 -15 0 -11 -12 -15 -45 -15 -38 0 -45 -3 -45
-20 0 -17 -7 -20 -50 -20 -38 0 -50 -4 -50 -15 0 -10 -11 -15 -35 -15 -24 0
-35 -5 -35 -15 0 -12 -16 -15 -80 -15 -64 0 -80 -3 -80 -15 0 -11 -12 -15 -50
-15 -38 0 -50 -4 -50 -15 0 -11 -12 -15 -50 -15 -38 0 -50 -4 -50 -15 0 -11
-12 -15 -45 -15 -33 0 -45 -4 -45 -15 0 -13 -86 -15 -715 -15 -629 0 -715 2
-715 15 0 8 -9 15 -20 15 -11 0 -20 7 -20 15 0 12 -14 15 -65 15 -51 0 -65 3
-65 15 0 10 -10 15 -30 15 -20 0 -30 5 -30 15 0 11 -12 15 -50 15 -38 0 -50 4
-50 15 0 12 -16 15 -80 15 -64 0 -80 3 -80 15 0 8 -7 15 -15 15 -8 0 -15 9
-15 20 0 16 -7 20 -35 20 -24 0 -35 5 -35 15 0 11 -12 15 -50 15 -38 0 -50 4
-50 15 0 11 -12 15 -45 15 -33 0 -45 4 -45 15 0 8 -9 15 -20 15 -11 0 -20 7
-20 15 0 12 -16 15 -80 15 -64 0 -80 3 -80 15 0 8 -7 15 -15 15 -8 0 -15 7
-15 15 0 10 -11 15 -35 15 -24 0 -35 5 -35 15 0 8 -7 15 -15 15 -8 0 -15 7
-15 15 0 8 -7 15 -15 15 -8 0 -15 7 -15 15 0 10 -11 15 -35 15 -24 0 -35 5
-35 15 0 10 -10 15 -30 15 -20 0 -30 5 -30 15 0 8 -7 15 -15 15 -8 0 -15 7
-15 15 0 8 -9 15 -20 15 -11 0 -20 7 -20 15 0 8 -7 15 -15 15 -8 0 -15 9 -15
20 0 16 -7 20 -30 20 -20 0 -30 5 -30 15 0 8 -9 15 -20 15 -11 0 -20 7 -20 15
0 10 -10 15 -30 15 -27 0 -30 3 -30 30 0 20 -5 30 -15 30 -8 0 -15 7 -15 15 0
8 -9 15 -20 15 -16 0 -20 7 -20 30 0 20 -5 30 -15 30 -8 0 -15 7 -15 15 0 8
-7 15 -15 15 -11 0 -15 12 -15 45 0 33 -4 45 -15 45 -10 0 -15 10 -15 30 0 23
-4 30 -20 30 -13 0 -20 7 -20 20 0 11 -7 20 -15 20 -10 0 -15 10 -15 30 0 20
-5 30 -15 30 -10 0 -15 10 -15 30 0 20 -5 30 -15 30 -11 0 -15 12 -15 45 0 38
-3 45 -20 45 -18 0 -20 7 -20 60 0 47 -3 60 -15 60 -11 0 -15 12 -15 50 0 38
-4 50 -15 50 -10 0 -15 10 -15 30 0 20 -5 30 -15 30 -12 0 -15 13 -15 60 0 53
-2 60 -20 60 -17 0 -20 7 -20 45 0 33 -4 45 -15 45 -11 0 -15 12 -15 45 0 33
-4 45 -15 45 -12 0 -15 17 -15 95 0 88 -1 95 -20 95 -17 0 -20 7 -20 45 0 33
-4 45 -15 45 -11 0 -15 12 -15 45 0 33 -4 45 -15 45 -12 0 -15 19 -15 110 0
91 -3 110 -15 110 -12 0 -15 15 -15 75 0 68 -2 75 -20 75 -20 0 -20 7 -20 400
0 393 0 400 20 400 19 0 20 7 20 155 0 131 2 155 15 155 12 0 15 17 15 90 0
73 3 90 15 90 12 0 15 16 15 80 0 64 3 80 15 80 11 0 15 12 15 45 0 38 3 45
20 45 11 0 20 7 20 15 0 8 7 15 15 15 12 0 15 15 15 75 0 60 3 75 15 75 11 0
15 12 15 45 0 38 3 45 20 45 11 0 20 7 20 15 0 8 7 15 15 15 10 0 15 11 15 35
0 24 5 35 15 35 8 0 15 7 15 15 0 8 7 15 15 15 10 0 15 10 15 30 0 23 4 30 20
30 17 0 20 7 20 45 0 33 4 45 15 45 10 0 15 10 15 30 0 27 3 30 30 30 27 0 30
3 30 30 0 23 4 30 20 30 11 0 20 7 20 15 0 8 7 15 15 15 8 0 15 9 15 20 0 11
7 20 15 20 11 0 15 12 15 45 0 45 0 45 35 45 32 0 35 2 35 30 0 27 3 30 30 30
20 0 30 5 30 15 0 8 7 15 15 15 10 0 15 10 15 30 0 23 4 30 20 30 11 0 20 7
20 15 0 8 7 15 15 15 10 0 15 10 15 30 0 27 3 30 30 30 20 0 30 5 30 15 0 10
11 15 35 15 33 0 35 2 35 35 0 24 5 35 15 35 8 0 15 7 15 15 0 8 7 15 15 15 8
0 15 7 15 15 0 8 9 15 20 15 11 0 20 7 20 15 0 8 7 15 15 15 8 0 15 7 15 15 0
10 10 15 30 15 27 0 30 3 30 30 0 28 3 30 35 30 24 0 35 5 35 15 0 8 7 15 15
15 8 0 15 7 15 15 0 8 7 15 15 15 8 0 15 7 15 15 0 8 9 15 20 15 11 0 20 7 20
15 0 10 10 15 30 15 20 0 30 5 30 15 0 8 7 15 15 15 8 0 15 7 15 15 0 10 11
15 35 15 24 0 35 5 35 15 0 10 10 15 30 15 28 0 30 3 30 35 0 33 2 35 35 35
24 0 35 5 35 15 0 11 12 15 50 15 38 0 50 4 50 15 0 10 10 15 30 15 20 0 30 5
30 15 0 8 7 15 15 15 8 0 15 7 15 15 0 10 11 15 35 15 24 0 35 5 35 15 0 8 7
15 15 15 8 0 15 7 15 15 0 12 14 15 65 15 51 0 65 3 65 15 0 10 11 15 35 15
24 0 35 5 35 15 0 10 10 15 30 15 20 0 30 5 30 15 0 10 11 15 35 15 24 0 35 5
35 15 0 10 10 15 30 15 20 0 30 5 30 15 0 11 12 15 50 15 38 0 50 4 50 15 0
12 19 15 115 15 108 0 115 1 115 20 0 16 7 20 30 20 20 0 30 5 30 15 0 11 12
15 50 15 38 0 50 4 50 15 0 12 14 15 65 15 51 0 65 3 65 15 0 11 12 15 50 15
38 0 50 4 50 15 0 13 86 15 715 15 629 0 715 -2 715 -15 0 -12 17 -15 95 -15
78 0 95 -3 95 -15 0 -12 18 -15 100 -15 l100 0 0 30 c0 20 -5 30 -15 30 -8 0
-15 7 -15 15 0 12 -14 15 -65 15 -51 0 -65 3 -65 15 0 12 -19 15 -115 15 -96
0 -115 3 -115 15 0 13 -88 15 -735 15 -647 0 -735 -2 -735 -15 0 -11 -12 -15
-45 -15 -33 0 -45 -4 -45 -15 0 -12 -14 -15 -65 -15 -51 0 -65 -3 -65 -15 0
-12 -14 -15 -65 -15 -51 0 -65 -3 -65 -15 0 -8 -9 -15 -20 -15 -11 0 -20 -7
-20 -15 0 -12 -19 -15 -110 -15 -91 0 -110 -3 -110 -15 0 -11 -12 -15 -50 -15
-38 0 -50 -4 -50 -15 0 -10 -11 -15 -35 -15 -28 0 -35 -4 -35 -20 0 -16 -7
-20 -30 -20 -20 0 -30 -5 -30 -15 0 -10 -11 -15 -35 -15 -24 0 -35 -5 -35 -15
0 -10 -10 -15 -30 -15 -20 0 -30 -5 -30 -15 0 -12 -16 -15 -80 -15 -64 0 -80
-3 -80 -15 0 -8 -9 -15 -20 -15 -11 0 -20 -7 -20 -15 0 -8 -7 -15 -15 -15 -8
0 -15 -7 -15 -15 0 -8 -7 -15 -15 -15 -8 0 -15 -7 -15 -15 0 -10 -11 -15 -35
-15 -24 0 -35 -5 -35 -15 0 -11 -12 -15 -45 -15 -33 0 -45 -4 -45 -15 0 -10
-11 -15 -35 -15 -24 0 -35 -5 -35 -15 0 -8 -7 -15 -15 -15 -8 0 -15 -7 -15
-15 0 -8 -7 -15 -15 -15 -8 0 -15 -7 -15 -15 0 -10 -11 -15 -35 -15 -24 0 -35
-5 -35 -15 0 -10 -10 -15 -30 -15 -23 0 -30 -4 -30 -20 0 -13 -7 -20 -20 -20
-11 0 -20 -7 -20 -15 0 -10 -10 -15 -30 -15 -20 0 -30 -5 -30 -15 0 -8 -7 -15
-15 -15 -8 0 -15 -7 -15 -15 0 -8 -9 -15 -20 -15 -11 0 -20 -7 -20 -15 0 -8
-7 -15 -15 -15 -8 0 -15 -7 -15 -15 0 -8 -7 -15 -15 -15 -8 0 -15 -7 -15 -15
0 -8 -7 -15 -15 -15 -8 0 -15 -7 -15 -15 0 -10 -11 -15 -35 -15 -24 0 -35 -5
-35 -15 0 -8 -7 -15 -15 -15 -8 0 -15 -7 -15 -15 0 -8 -7 -15 -15 -15 -8 0
-15 -7 -15 -15 0 -8 -9 -15 -20 -15 -16 0 -20 -7 -20 -30 0 -20 -5 -30 -15
-30 -8 0 -15 -7 -15 -15 0 -10 -10 -15 -30 -15 -23 0 -30 -4 -30 -20 0 -13 -7
-20 -20 -20 -11 0 -20 -7 -20 -15 0 -8 -7 -15 -15 -15 -8 0 -15 -7 -15 -15 0
-8 -7 -15 -15 -15 -10 0 -15 -10 -15 -30 0 -20 -5 -30 -15 -30 -8 0 -15 -7
-15 -15 0 -8 -9 -15 -20 -15 -11 0 -20 -7 -20 -15 0 -8 -7 -15 -15 -15 -8 0
-15 -7 -15 -15 0 -8 -7 -15 -15 -15 -8 0 -15 -7 -15 -15 0 -8 -7 -15 -15 -15
-8 0 -15 -7 -15 -15 0 -8 -9 -15 -20 -15 -16 0 -20 -7 -20 -30 0 -20 -5 -30
-15 -30 -10 0 -15 -10 -15 -30 0 -20 -5 -30 -15 -30 -8 0 -15 -9 -15 -20 0
-11 -7 -20 -15 -20 -8 0 -15 -7 -15 -15 0 -8 -9 -15 -20 -15 -11 0 -20 -7 -20
-15 0 -8 -7 -15 -15 -15 -8 0 -15 -7 -15 -15 0 -8 -7 -15 -15 -15 -12 0 -15
-13 -15 -60 0 -47 -3 -60 -15 -60 -8 0 -15 -7 -15 -15 0 -8 -9 -15 -20 -15
-16 0 -20 -7 -20 -30 0 -20 -5 -30 -15 -30 -10 0 -15 -10 -15 -30 0 -20 -5
-30 -15 -30 -8 0 -15 -9 -15 -20 0 -13 -7 -20 -20 -20 -17 0 -20 -7 -20 -45 0
-33 -4 -45 -15 -45 -12 0 -15 -13 -15 -60 0 -47 -3 -60 -15 -60 -10 0 -15 -10
-15 -30 0 -20 -5 -30 -15 -30 -11 0 -15 -12 -15 -45 0 -38 -3 -45 -20 -45 -18
0 -20 -7 -20 -80 0 -64 -3 -80 -15 -80 -12 0 -15 -17 -15 -90 0 -73 -3 -90
-15 -90 -13 0 -15 -24 -15 -155 0 -131 -2 -155 -15 -155 -13 0 -15 -54 -15
-430 0 -376 2 -430 15 -430 12 0 15 -15 15 -75 0 -60 3 -75 15 -75 12 0 15
-19 15 -110 0 -91 3 -110 15 -110 11 0 15 -12 15 -45 0 -38 3 -45 20 -45 17 0
20 -7 20 -45 0 -33 4 -45 15 -45 12 0 15 -17 15 -95 0 -78 3 -95 15 -95 11 0
15 -12 15 -45 0 -33 4 -45 15 -45 11 0 15 -12 15 -45 0 -38 3 -45 20 -45 18 0
20 -7 20 -60 0 -47 3 -60 15 -60 10 0 15 -10 15 -30 0 -20 5 -30 15 -30 11 0
15 -12 15 -50 0 -43 3 -50 20 -50 17 0 20 -7 20 -45 0 -33 4 -45 15 -45 12 0
15 -15 15 -75 0 -60 3 -75 15 -75 8 0 15 -7 15 -15 0 -8 7 -15 15 -15 10 0 15
-11 15 -35 0 -28 4 -35 20 -35 16 0 20 -7 20 -30 0 -20 5 -30 15 -30 8 0 15
-7 15 -15 0 -8 7 -15 15 -15 12 0 15 -13 15 -60 0 -47 3 -60 15 -60 8 0 15 -7
15 -15 0 -8 9 -15 20 -15 11 0 20 -7 20 -15 0 -8 7 -15 15 -15 8 0 15 -7 15
-15 0 -8 7 -15 15 -15 10 0 15 -10 15 -30 0 -20 5 -30 15 -30 8 0 15 -7 15
-15 0 -8 9 -15 20 -15 13 0 20 -7 20 -20 0 -16 7 -20 30 -20 20 0 30 -5 30
-15 0 -8 7 -15 15 -15 8 0 15 -7 15 -15 0 -8 9 -15 20 -15 11 0 20 -7 20 -15
0 -8 7 -15 15 -15 8 0 15 -7 15 -15 0 -8 7 -15 15 -15 8 0 15 -7 15 -15 0 -8
7 -15 15 -15 8 0 15 -7 15 -15 0 -11 12 -15 50 -15 38 0 50 -4 50 -15 0 -8 7
-15 15 -15 8 0 15 -7 15 -15 0 -8 9 -15 20 -15 11 0 20 -7 20 -15 0 -10 10
-15 30 -15 20 0 30 -5 30 -15 0 -10 11 -15 35 -15 24 0 35 -5 35 -15 0 -8 7
-15 15 -15 8 0 15 -7 15 -15 0 -12 16 -15 80 -15 64 0 80 -3 80 -15 0 -8 7
-15 15 -15 8 0 15 -9 15 -20 0 -17 7 -20 50 -20 38 0 50 -4 50 -15 0 -11 12
-15 50 -15 38 0 50 -4 50 -15 0 -10 10 -15 30 -15 20 0 30 -5 30 -15 0 -8 9
-15 20 -15 11 0 20 -7 20 -15 0 -12 16 -15 80 -15 64 0 80 -3 80 -15 0 -11 12
-15 50 -15 38 0 50 -4 50 -15 0 -10 10 -15 30 -15 20 0 30 -5 30 -15 0 -12 14
-15 65 -15 51 0 65 -3 65 -15 0 -8 7 -15 15 -15 8 0 15 -7 15 -15 0 -13 90
-15 750 -15 660 0 750 2 750 15 0 11 12 15 50 15 38 0 50 4 50 15 0 11 12 15
45 15 33 0 45 4 45 15 0 11 12 15 50 15 38 0 50 4 50 15 0 12 16 15 85 15 69
0 85 3 85 15 0 10 10 15 30 15 20 0 30 5 30 15 0 11 12 15 50 15 38 0 50 4 50
15 0 12 14 15 65 15 51 0 65 3 65 15 0 11 12 15 50 15 38 0 50 4 50 15 0 8 7
15 15 15 8 0 15 9 15 20 0 18 7 20 80 20 64 0 80 3 80 15 0 11 12 15 50 15 38
0 50 4 50 15 0 10 10 15 30 15 20 0 30 5 30 15 0 10 11 15 35 15 24 0 35 5 35
15 0 12 14 15 65 15 51 0 65 3 65 15 0 10 10 15 30 15 20 0 30 5 30 15 0 12
14 15 65 15 51 0 65 3 65 15 0 8 9 15 20 15 11 0 20 7 20 15 0 11 12 15 45 15
33 0 45 4 45 15 0 10 11 15 35 15 24 0 35 5 35 15 0 10 10 15 30 15 20 0 30 5
30 15 0 10 11 15 35 15 24 0 35 5 35 15 0 11 12 15 50 15 38 0 50 4 50 15 0
10 10 15 30 15 23 0 30 4 30 20 0 16 7 20 35 20 32 0 35 2 35 30 0 20 5 30 15
30 8 0 15 7 15 15 0 10 10 15 30 15 20 0 30 5 30 15 0 10 11 15 35 15 24 0 35
5 35 15 0 10 10 15 30 15 20 0 30 5 30 15 0 10 11 15 35 15 24 0 35 5 35 15 0
10 10 15 30 15 20 0 30 5 30 15 0 8 9 15 20 15 11 0 20 7 20 15 0 10 10 15 30
15 20 0 30 5 30 15 0 8 7 15 15 15 8 0 15 7 15 15 0 8 9 15 20 15 11 0 20 7
20 15 0 8 7 15 15 15 8 0 15 7 15 15 0 8 7 15 15 15 10 0 15 11 15 35 0 33 2
35 35 35 24 0 35 5 35 15 0 10 10 15 30 15 27 0 30 3 30 30 0 20 5 30 15 30 8
0 15 7 15 15 0 8 9 15 20 15 11 0 20 7 20 15 0 8 7 15 15 15 8 0 15 7 15 15 0
10 10 15 30 15 20 0 30 5 30 15 0 8 9 15 20 15 11 0 20 7 20 15 0 8 7 15 15
15 11 0 15 12 15 45 0 43 1 45 30 45 23 0 30 4 30 20 0 13 7 20 20 20 11 0 20
7 20 15 0 8 7 15 15 15 8 0 15 7 15 15 0 8 7 15 15 15 10 0 15 10 15 30 0 20
5 30 15 30 8 0 15 7 15 15 0 8 9 15 20 15 11 0 20 7 20 15 0 8 7 15 15 15 8 0
15 7 15 15 0 8 7 15 15 15 8 0 15 7 15 15 0 8 7 15 15 15 10 0 15 10 15 30 0
23 4 30 20 30 11 0 20 7 20 15 0 8 7 15 15 15 8 0 15 7 15 15 0 8 7 15 15 15
8 0 15 7 15 15 0 8 7 15 15 15 8 0 15 9 15 20 0 13 7 20 20 20 16 0 20 7 20
30 0 20 5 30 15 30 10 0 15 10 15 30 0 20 5 30 15 30 8 0 15 7 15 15 0 8 7 15
15 15 12 0 15 13 15 60 l0 60 35 0 c32 0 35 2 35 30 0 20 5 30 15 30 10 0 15
10 15 30 0 20 5 30 15 30 10 0 15 11 15 35 0 28 4 35 20 35 11 0 20 7 20 15 0
8 7 15 15 15 12 0 15 15 15 75 0 60 3 75 15 75 10 0 15 10 15 30 0 20 5 30 15
30 11 0 15 12 15 45 0 38 3 45 20 45 16 0 20 7 20 35 0 24 5 35 15 35 11 0 15
12 15 45 0 33 4 45 15 45 12 0 15 13 15 60 0 47 3 60 15 60 13 0 15 63 15 505
0 442 -2 505 -15 505 -12 0 -15 14 -15 65 0 51 -3 65 -15 65 -12 0 -15 13 -15
60 0 47 -3 60 -15 60 -10 0 -15 10 -15 30 0 23 -4 30 -20 30 -17 0 -20 7 -20
45 0 33 -4 45 -15 45 -11 0 -15 12 -15 50 0 38 -4 50 -15 50 -12 0 -15 13 -15
60 0 47 -3 60 -15 60 -8 0 -15 7 -15 15 0 8 -9 15 -20 15 -16 0 -20 7 -20 30
0 20 -5 30 -15 30 -10 0 -15 10 -15 30 0 20 -5 30 -15 30 -8 0 -15 7 -15 15 0
8 -7 15 -15 15 -11 0 -15 12 -15 50 0 43 -3 50 -20 50 -16 0 -20 7 -20 30 0
27 -3 30 -30 30 -20 0 -30 5 -30 15 0 8 -7 15 -15 15 -10 0 -15 10 -15 30 0
23 -4 30 -20 30 -16 0 -20 7 -20 30 0 20 -5 30 -15 30 -8 0 -15 7 -15 15 0 8
-7 15 -15 15 -8 0 -15 7 -15 15 0 8 -7 15 -15 15 -8 0 -15 7 -15 15 0 8 -9 15
-20 15 -16 0 -20 7 -20 30 0 20 -5 30 -15 30 -8 0 -15 7 -15 15 0 8 -7 15 -15
15 -8 0 -15 9 -15 20 0 11 -7 20 -15 20 -8 0 -15 7 -15 15 0 8 -9 15 -20 15
-11 0 -20 7 -20 15 0 8 -7 15 -15 15 -8 0 -15 7 -15 15 0 8 -7 15 -15 15 -8 0
-15 7 -15 15 0 8 -7 15 -15 15 -8 0 -15 7 -15 15 0 8 -9 15 -20 15 -11 0 -20
7 -20 15 0 8 -7 15 -15 15 -8 0 -15 7 -15 15 0 8 -7 15 -15 15 -8 0 -15 7 -15
15 0 8 -7 15 -15 15 -8 0 -15 7 -15 15 0 8 -9 15 -20 15 -11 0 -20 7 -20 15 0
8 -7 15 -15 15 -8 0 -15 7 -15 15 0 10 -10 15 -30 15 -20 0 -30 5 -30 15 0 8
-9 15 -20 15 -11 0 -20 7 -20 15 0 8 -7 15 -15 15 -8 0 -15 9 -15 20 0 11 -7
20 -15 20 -8 0 -15 7 -15 15 0 8 -7 15 -15 15 -8 0 -15 7 -15 15 0 8 -9 15
-20 15 -11 0 -20 7 -20 15 0 8 -7 15 -15 15 -8 0 -15 7 -15 15 0 8 -7 15 -15
15 -8 0 -15 7 -15 15 0 10 -11 15 -35 15 -24 0 -35 5 -35 15 0 8 -7 15 -15 15
-8 0 -15 7 -15 15 0 8 -7 15 -15 15 -8 0 -15 7 -15 15 0 8 -7 15 -15 15 -8 0
-15 7 -15 15 0 10 -11 15 -35 15 -24 0 -35 5 -35 15 0 8 -7 15 -15 15 -8 0
-15 7 -15 15 0 10 -11 15 -35 15 -24 0 -35 5 -35 15 0 8 -7 15 -15 15 -8 0
-15 7 -15 15 0 8 -7 15 -15 15 -8 0 -15 9 -15 20 0 16 -7 20 -35 20 -24 0 -35
5 -35 15 0 10 -10 15 -30 15 -20 0 -30 5 -30 15 0 8 -7 15 -15 15 -8 0 -15 7
-15 15 0 8 -9 15 -20 15 -11 0 -20 7 -20 15 0 10 -10 15 -30 15 -20 0 -30 5
-30 15 0 8 -7 15 -15 15 -8 0 -15 7 -15 15 0 8 -9 15 -20 15 -11 0 -20 7 -20
15 0 10 -10 15 -30 15 -20 0 -30 5 -30 15 0 10 -11 15 -35 15 -24 0 -35 5 -35
15 0 8 -7 15 -15 15 -8 0 -15 7 -15 15 0 8 -7 15 -15 15 -8 0 -15 7 -15 15 0
8 -7 15 -15 15 -8 0 -15 7 -15 15 0 8 -9 15 -20 15 -11 0 -20 7 -20 15 0 12
-17 15 -95 15 -88 0 -95 1 -95 20 0 19 -7 20 -260 20 -253 0 -260 -1 -260 -20z"/>
<path d="M8710 13915 c0 -8 -9 -15 -20 -15 -11 0 -20 -7 -20 -15 0 -10 -10
-15 -30 -15 -23 0 -30 -4 -30 -20 0 -16 -7 -20 -35 -20 -24 0 -35 -5 -35 -15
0 -8 -7 -15 -15 -15 -8 0 -15 -7 -15 -15 0 -12 -16 -15 -80 -15 -64 0 -80 -3
-80 -15 0 -11 -12 -15 -50 -15 -38 0 -50 -4 -50 -15 0 -10 -10 -15 -30 -15
-20 0 -30 -5 -30 -15 0 -10 -11 -15 -35 -15 -24 0 -35 -5 -35 -15 0 -10 -10
-15 -30 -15 -20 0 -30 -5 -30 -15 0 -11 -12 -15 -50 -15 -38 0 -50 -4 -50 -15
0 -11 -12 -15 -50 -15 -38 0 -50 -4 -50 -15 0 -10 -10 -15 -30 -15 -20 0 -30
-5 -30 -15 0 -10 -11 -15 -35 -15 -24 0 -35 -5 -35 -15 0 -10 -10 -15 -30 -15
-20 0 -30 -5 -30 -15 0 -8 -9 -15 -20 -15 -13 0 -20 -7 -20 -20 0 -11 -7 -20
-15 -20 -8 0 -15 -7 -15 -15 0 -8 7 -15 15 -15 8 0 15 -7 15 -15 0 -11 12 -15
50 -15 38 0 50 4 50 15 0 8 7 15 15 15 8 0 15 7 15 15 0 10 11 15 35 15 28 0
35 4 35 20 0 16 7 20 30 20 20 0 30 5 30 15 0 11 12 15 50 15 38 0 50 4 50 15
0 11 12 15 50 15 38 0 50 4 50 15 0 10 10 15 30 15 20 0 30 5 30 15 0 10 11
15 35 15 24 0 35 5 35 15 0 10 10 15 30 15 20 0 30 5 30 15 0 11 12 15 50 15
38 0 50 4 50 15 0 12 16 15 80 15 64 0 80 3 80 15 0 8 9 15 20 15 11 0 20 7
20 15 0 10 10 15 30 15 20 0 30 5 30 15 0 10 11 15 35 15 24 0 35 5 35 15 0
10 10 15 30 15 20 0 30 5 30 15 0 8 7 15 15 15 10 0 15 11 15 35 0 24 -5 35
-15 35 -8 0 -15 7 -15 15 0 10 -10 15 -30 15 -20 0 -30 -5 -30 -15z"/>
<path d="M10140 13785 c0 -8 -9 -15 -20 -15 -11 0 -20 -7 -20 -15 0 -8 9 -15
20 -15 11 0 20 -7 20 -15 0 -13 52 -15 405 -15 353 0 405 -2 405 -15 0 -13 21
-15 130 -15 109 0 130 -2 130 -15 0 -13 23 -15 145 -15 122 0 145 -2 145 -15
0 -12 18 -15 100 -15 82 0 100 -3 100 -15 0 -12 19 -15 115 -15 l115 0 0 30
c0 23 -4 30 -20 30 -11 0 -20 7 -20 15 0 12 -16 15 -80 15 -64 0 -80 3 -80 15
0 12 -17 15 -95 15 -78 0 -95 3 -95 15 0 13 -23 15 -150 15 -127 0 -150 2
-150 15 0 13 -21 15 -130 15 -109 0 -130 2 -130 15 0 13 -53 15 -420 15 -367
0 -420 -2 -420 -15z"/>
<path d="M9550 13325 c0 -8 -7 -15 -15 -15 -13 0 -15 -37 -15 -275 0 -238 -2
-275 -15 -275 -12 0 -15 -19 -15 -110 0 -103 -1 -110 -20 -110 -19 0 -20 -7
-20 -90 0 -73 -3 -90 -15 -90 -13 0 -15 -24 -15 -155 0 -131 -2 -155 -15 -155
-11 0 -15 -12 -15 -45 0 -33 -4 -45 -15 -45 -8 0 -15 -7 -15 -15 0 -8 7 -15
15 -15 8 0 15 -7 15 -15 0 -11 12 -15 50 -15 l50 0 0 60 c0 47 3 60 15 60 13
0 15 24 15 155 0 131 2 155 15 155 12 0 15 17 15 90 0 73 3 90 15 90 12 0 15
19 15 110 0 103 1 110 20 110 19 0 20 7 20 260 0 224 2 260 15 260 10 0 15 10
15 30 0 20 -5 30 -15 30 -8 0 -15 7 -15 15 0 10 -11 15 -35 15 -24 0 -35 -5
-35 -15z"/>
<path d="M12580 11455 c0 -8 -9 -15 -20 -15 -11 0 -20 -7 -20 -15 0 -10 -10
-15 -30 -15 -20 0 -30 -5 -30 -15 0 -8 -7 -15 -15 -15 -8 0 -15 -7 -15 -15 0
-10 -11 -15 -35 -15 -24 0 -35 -5 -35 -15 0 -10 -10 -15 -30 -15 -23 0 -30 -4
-30 -20 0 -18 -7 -20 -85 -20 -69 0 -85 -3 -85 -15 0 -10 -10 -15 -30 -15 -20
0 -30 -5 -30 -15 0 -8 -7 -15 -15 -15 -8 0 -15 -7 -15 -15 0 -10 -11 -15 -35
-15 -24 0 -35 -5 -35 -15 0 -10 -10 -15 -30 -15 -20 0 -30 -5 -30 -15 0 -10
-11 -15 -35 -15 -24 0 -35 -5 -35 -15 0 -11 -12 -15 -50 -15 -38 0 -50 -4 -50
-15 0 -11 -12 -15 -45 -15 -33 0 -45 -4 -45 -15 0 -10 -11 -15 -35 -15 -24 0
-35 -5 -35 -15 0 -10 -10 -15 -30 -15 -20 0 -30 -5 -30 -15 0 -10 -11 -15 -35
-15 -24 0 -35 -5 -35 -15 0 -10 -10 -15 -30 -15 -20 0 -30 -5 -30 -15 0 -10
-11 -15 -35 -15 -24 0 -35 -5 -35 -15 0 -10 -10 -15 -30 -15 -23 0 -30 -4 -30
-20 0 -17 -7 -20 -50 -20 -38 0 -50 -4 -50 -15 0 -11 -12 -15 -50 -15 -38 0
-50 -4 -50 -15 0 -11 -12 -15 -50 -15 -38 0 -50 -4 -50 -15 0 -11 -12 -15 -45
-15 -33 0 -45 -4 -45 -15 0 -8 -9 -15 -20 -15 -11 0 -20 -7 -20 -15 0 -10 -10
-15 -30 -15 -20 0 -30 -5 -30 -15 0 -8 -7 -15 -15 -15 -8 0 -15 -7 -15 -15 0
-10 -11 -15 -35 -15 -24 0 -35 -5 -35 -15 0 -11 -12 -15 -50 -15 -38 0 -50 -4
-50 -15 0 -10 -10 -15 -30 -15 -20 0 -30 -5 -30 -15 0 -10 -11 -15 -35 -15
-24 0 -35 -5 -35 -15 0 -10 -10 -15 -30 -15 -20 0 -30 -5 -30 -15 0 -11 -12
-15 -50 -15 -38 0 -50 -4 -50 -15 0 -10 -10 -15 -30 -15 -23 0 -30 -4 -30 -20
0 -17 -7 -20 -50 -20 -38 0 -50 -4 -50 -15 0 -13 -32 -15 -230 -15 -198 0
-230 2 -230 15 0 11 -12 15 -50 15 -43 0 -50 3 -50 20 0 16 -7 20 -30 20 -20
0 -30 5 -30 15 0 12 -14 15 -65 15 -51 0 -65 3 -65 15 0 10 -11 15 -35 15 -24
0 -35 5 -35 15 0 10 -10 15 -30 15 -20 0 -30 5 -30 15 0 12 -14 15 -65 15 -51
0 -65 3 -65 15 0 10 -11 15 -35 15 -24 0 -35 5 -35 15 0 10 -10 15 -30 15 -20
0 -30 5 -30 15 0 10 -11 15 -35 15 -24 0 -35 5 -35 15 0 8 -7 15 -15 15 -8 0
-15 7 -15 15 0 10 -10 15 -30 15 -20 0 -30 5 -30 15 0 11 -12 15 -50 15 -38 0
-50 4 -50 15 0 8 -7 15 -15 15 -8 0 -15 7 -15 15 0 8 -9 15 -20 15 -11 0 -20
7 -20 15 0 8 -7 15 -15 15 -8 0 -15 9 -15 20 0 11 -7 20 -15 20 -8 0 -15 7
-15 15 0 10 -11 15 -35 15 -24 0 -35 5 -35 15 0 8 -7 15 -15 15 -8 0 -15 7
-15 15 0 8 -7 15 -15 15 -8 0 -15 7 -15 15 0 10 -11 15 -35 15 -24 0 -35 5
-35 15 0 8 -7 15 -15 15 -8 0 -15 7 -15 15 0 8 -7 15 -15 15 -8 0 -15 7 -15
15 0 8 -7 15 -15 15 -8 0 -15 7 -15 15 0 8 -9 15 -20 15 -11 0 -20 7 -20 15 0
8 -7 15 -15 15 -10 0 -15 10 -15 30 0 20 -5 30 -15 30 -11 0 -15 12 -15 50 0
38 -4 50 -15 50 -8 0 -15 7 -15 15 0 8 -9 15 -20 15 -11 0 -20 -7 -20 -15 0
-8 -7 -15 -15 -15 -12 0 -15 -14 -15 -65 0 -51 3 -65 15 -65 10 0 15 -10 15
-30 0 -23 4 -30 20 -30 11 0 20 -7 20 -15 0 -8 7 -15 15 -15 8 0 15 -7 15 -15
0 -8 7 -15 15 -15 10 0 15 -10 15 -30 0 -28 3 -30 35 -30 24 0 35 -5 35 -15 0
-8 7 -15 15 -15 8 0 15 -7 15 -15 0 -8 7 -15 15 -15 8 0 15 -7 15 -15 0 -8 7
-15 15 -15 8 0 15 -7 15 -15 0 -10 11 -15 35 -15 28 0 35 -4 35 -20 0 -11 7
-20 15 -20 8 0 15 -7 15 -15 0 -8 7 -15 15 -15 8 0 15 -7 15 -15 0 -8 9 -15
20 -15 11 0 20 -7 20 -15 0 -10 10 -15 30 -15 20 0 30 -5 30 -15 0 -8 7 -15
15 -15 8 0 15 -7 15 -15 0 -8 9 -15 20 -15 11 0 20 -7 20 -15 0 -11 12 -15 45
-15 33 0 45 -4 45 -15 0 -10 11 -15 35 -15 24 0 35 -5 35 -15 0 -8 7 -15 15
-15 8 0 15 -7 15 -15 0 -10 11 -15 35 -15 24 0 35 -5 35 -15 0 -10 10 -15 30
-15 20 0 30 -5 30 -15 0 -11 12 -15 50 -15 38 0 50 -4 50 -15 0 -11 12 -15 50
-15 38 0 50 -4 50 -15 0 -8 7 -15 15 -15 8 0 15 -9 15 -20 0 -17 7 -20 50 -20
38 0 50 -4 50 -15 0 -12 14 -15 65 -15 51 0 65 -3 65 -15 0 -10 10 -15 30 -15
20 0 30 -5 30 -15 0 -11 12 -15 50 -15 38 0 50 -4 50 -15 0 -13 36 -15 260
-15 224 0 260 2 260 15 0 11 12 15 50 15 38 0 50 4 50 15 0 10 10 15 30 15 20
0 30 5 30 15 0 11 12 15 50 15 38 0 50 4 50 15 0 8 7 15 15 15 8 0 15 9 15 20
0 17 7 20 50 20 38 0 50 4 50 15 0 10 11 15 35 15 24 0 35 5 35 15 0 11 12 15
45 15 33 0 45 4 45 15 0 8 9 15 20 15 11 0 20 7 20 15 0 10 10 15 30 15 20 0
30 5 30 15 0 8 7 15 15 15 8 0 15 7 15 15 0 10 11 15 35 15 24 0 35 5 35 15 0
11 12 15 50 15 38 0 50 4 50 15 0 12 14 15 65 15 51 0 65 3 65 15 0 8 7 15 15
15 8 0 15 7 15 15 0 12 14 15 65 15 51 0 65 3 65 15 0 10 10 15 30 15 20 0 30
5 30 15 0 10 11 15 35 15 24 0 35 5 35 15 0 10 10 15 30 15 23 0 30 4 30 20 0
16 7 20 35 20 24 0 35 5 35 15 0 10 10 15 30 15 20 0 30 5 30 15 0 10 11 15
35 15 24 0 35 5 35 15 0 11 12 15 50 15 38 0 50 4 50 15 0 11 12 15 45 15 33
0 45 4 45 15 0 10 11 15 35 15 24 0 35 5 35 15 0 8 7 15 15 15 8 0 15 7 15 15
0 11 12 15 50 15 38 0 50 4 50 15 0 8 7 15 15 15 8 0 15 7 15 15 0 10 11 15
35 15 24 0 35 5 35 15 0 12 14 15 65 15 51 0 65 3 65 15 0 11 12 15 45 15 33
0 45 4 45 15 0 8 9 15 20 15 11 0 20 7 20 15 0 11 12 15 45 15 38 0 45 3 45
20 0 13 7 20 20 20 11 0 20 7 20 15 0 10 10 15 30 15 20 0 30 5 30 15 0 8 7
15 15 15 10 0 15 10 15 30 0 20 -5 30 -15 30 -8 0 -15 7 -15 15 0 10 -10 15
-30 15 -20 0 -30 -5 -30 -15z"/>
<path d="M9520 8750 c0 -11 -7 -20 -15 -20 -13 0 -15 -107 -15 -905 l0 -905
-50 0 c-38 0 -50 -4 -50 -15 0 -11 -12 -15 -50 -15 -38 0 -50 -4 -50 -15 0
-10 -10 -15 -30 -15 -20 0 -30 -5 -30 -15 0 -10 -11 -15 -35 -15 -24 0 -35 -5
-35 -15 0 -10 -10 -15 -30 -15 -20 0 -30 -5 -30 -15 0 -10 -11 -15 -35 -15
-24 0 -35 -5 -35 -15 0 -12 -17 -15 -95 -15 -78 0 -95 -3 -95 -15 0 -10 -11
-15 -35 -15 -24 0 -35 -5 -35 -15 0 -10 -10 -15 -30 -15 -20 0 -30 -5 -30 -15
0 -10 -11 -15 -35 -15 -28 0 -35 -4 -35 -20 0 -18 -7 -20 -80 -20 -64 0 -80
-3 -80 -15 0 -12 -14 -15 -65 -15 -51 0 -65 -3 -65 -15 0 -12 -16 -15 -80 -15
-64 0 -80 -3 -80 -15 0 -10 -11 -15 -35 -15 -24 0 -35 -5 -35 -15 0 -10 -10
-15 -30 -15 -20 0 -30 -5 -30 -15 0 -10 -11 -15 -35 -15 -24 0 -35 -5 -35 -15
0 -10 -10 -15 -30 -15 -20 0 -30 -5 -30 -15 0 -11 -12 -15 -50 -15 -38 0 -50
-4 -50 -15 0 -10 -11 -15 -35 -15 -24 0 -35 -5 -35 -15 0 -10 -10 -15 -30 -15
-20 0 -30 -5 -30 -15 0 -8 -7 -15 -15 -15 -8 0 -15 -7 -15 -15 0 -10 -11 -15
-35 -15 -24 0 -35 -5 -35 -15 0 -10 -10 -15 -30 -15 -20 0 -30 -5 -30 -15 0
-11 -12 -15 -50 -15 -43 0 -50 -3 -50 -20 0 -16 -7 -20 -35 -20 -24 0 -35 -5
-35 -15 0 -8 -7 -15 -15 -15 -10 0 -15 -10 -15 -30 0 -20 -5 -30 -15 -30 -8 0
-15 -7 -15 -15 0 -11 -12 -15 -50 -15 -38 0 -50 -4 -50 -15 0 -8 -7 -15 -15
-15 -8 0 -15 -7 -15 -15 0 -8 -7 -15 -15 -15 -8 0 -15 -7 -15 -15 0 -10 -11
-15 -35 -15 -24 0 -35 -5 -35 -15 0 -10 -10 -15 -30 -15 -20 0 -30 -5 -30 -15
0 -8 -9 -15 -20 -15 -11 0 -20 -7 -20 -15 0 -10 -10 -15 -30 -15 -20 0 -30 -5
-30 -15 0 -10 -11 -15 -35 -15 -24 0 -35 -5 -35 -15 0 -8 -7 -15 -15 -15 -8 0
-15 -7 -15 -15 0 -10 -10 -15 -30 -15 -23 0 -30 -4 -30 -20 0 -13 -7 -20 -20
-20 -11 0 -20 -7 -20 -15 0 -8 -7 -15 -15 -15 -8 0 -15 -7 -15 -15 0 -8 -7
-15 -15 -15 -8 0 -15 -7 -15 -15 0 -8 -7 -15 -15 -15 -8 0 -15 -7 -15 -15 0
-8 7 -15 15 -15 8 0 15 -7 15 -15 0 -11 12 -15 50 -15 38 0 50 4 50 15 0 8 7
15 15 15 8 0 15 7 15 15 0 8 7 15 15 15 8 0 15 7 15 15 0 10 11 15 35 15 32 0
35 2 35 30 0 29 2 30 45 30 38 0 45 3 45 20 0 16 7 20 35 20 32 0 35 2 35 30
0 27 3 30 30 30 20 0 30 5 30 15 0 10 11 15 35 15 24 0 35 5 35 15 0 10 10 15
30 15 20 0 30 5 30 15 0 8 9 15 20 15 11 0 20 7 20 15 0 10 10 15 30 15 20 0
30 5 30 15 0 8 7 15 15 15 8 0 15 7 15 15 0 10 11 15 35 15 32 0 35 2 35 30 0
20 5 30 15 30 8 0 15 7 15 15 0 11 12 15 50 15 38 0 50 4 50 15 0 10 10 15 30
15 20 0 30 5 30 15 0 10 11 15 35 15 28 0 35 4 35 20 0 11 7 20 15 20 8 0 15
7 15 15 0 11 12 15 50 15 38 0 50 4 50 15 0 8 7 15 15 15 8 0 15 7 15 15 0 12
14 15 65 15 51 0 65 3 65 15 0 8 7 15 15 15 8 0 15 7 15 15 0 10 11 15 35 15
24 0 35 5 35 15 0 8 7 15 15 15 8 0 15 7 15 15 0 11 12 15 50 15 38 0 50 4 50
15 0 12 14 15 65 15 51 0 65 3 65 15 0 12 16 15 80 15 64 0 80 3 80 15 0 12
14 15 65 15 51 0 65 3 65 15 0 11 12 15 50 15 38 0 50 4 50 15 0 10 10 15 30
15 20 0 30 5 30 15 0 10 11 15 35 15 28 0 35 4 35 20 0 19 7 20 95 20 78 0 95
3 95 15 0 10 11 15 35 15 24 0 35 5 35 15 0 11 12 15 50 15 38 0 50 4 50 15 0
8 7 15 15 15 8 0 15 7 15 15 0 10 10 15 30 15 20 0 30 5 30 15 0 11 12 15 50
15 38 0 50 4 50 15 0 10 11 15 35 15 l35 0 0 -155 0 -155 -390 0 c-340 0 -390
-2 -390 -15 0 -8 -9 -15 -20 -15 -11 0 -20 -7 -20 -15 0 -8 -7 -15 -15 -15 -8
0 -15 -7 -15 -15 0 -8 7 -15 15 -15 8 0 15 -7 15 -15 0 -11 12 -15 50 -15 38
0 50 4 50 15 0 13 47 15 360 15 l360 0 0 -245 c0 -238 -1 -245 -20 -245 -19 0
-20 -7 -20 -200 0 -171 -2 -200 -15 -200 -13 0 -15 -34 -15 -245 0 -211 -2
-245 -15 -245 -13 0 -15 -32 -15 -230 0 -198 -2 -230 -15 -230 -13 0 -15 -21
-15 -125 0 -118 -1 -125 -20 -125 -11 0 -20 -7 -20 -15 0 -8 -7 -15 -15 -15
-8 0 -15 -7 -15 -15 0 -10 -10 -15 -30 -15 -20 0 -30 -5 -30 -15 0 -11 -12
-15 -50 -15 -38 0 -50 -4 -50 -15 0 -11 -12 -15 -50 -15 -38 0 -50 -4 -50 -15
0 -10 -10 -15 -30 -15 -20 0 -30 -5 -30 -15 0 -10 -11 -15 -35 -15 -24 0 -35
-5 -35 -15 0 -10 -10 -15 -30 -15 -20 0 -30 -5 -30 -15 0 -10 -11 -15 -35 -15
-24 0 -35 -5 -35 -15 0 -12 -14 -15 -65 -15 -58 0 -65 -2 -65 -20 0 -16 -7
-20 -30 -20 -20 0 -30 -5 -30 -15 0 -8 -9 -15 -20 -15 -11 0 -20 -7 -20 -15 0
-10 -10 -15 -30 -15 -20 0 -30 -5 -30 -15 0 -8 -7 -15 -15 -15 -8 0 -15 -7
-15 -15 0 -10 -11 -15 -35 -15 -24 0 -35 -5 -35 -15 0 -8 -7 -15 -15 -15 -8 0
-15 -7 -15 -15 0 -10 -11 -15 -35 -15 -24 0 -35 -5 -35 -15 0 -10 -10 -15 -30
-15 -20 0 -30 -5 -30 -15 0 -10 -11 -15 -35 -15 -24 0 -35 -5 -35 -15 0 -8 -7
-15 -15 -15 -8 0 -15 -7 -15 -15 0 -8 -7 -15 -15 -15 -8 0 -15 -7 -15 -15 0
-11 -12 -15 -50 -15 -38 0 -50 -4 -50 -15 0 -8 -7 -15 -15 -15 -8 0 -15 -9
-15 -20 0 -11 -7 -20 -15 -20 -8 0 -15 -7 -15 -15 0 -10 -11 -15 -35 -15 -24
0 -35 -5 -35 -15 0 -8 -7 -15 -15 -15 -8 0 -15 -7 -15 -15 0 -10 -11 -15 -35
-15 -24 0 -35 -5 -35 -15 0 -10 -10 -15 -30 -15 -20 0 -30 -5 -30 -15 0 -8 -7
-15 -15 -15 -8 0 -15 -7 -15 -15 0 -8 -9 -15 -20 -15 -11 0 -20 -7 -20 -15 0
-10 -10 -15 -30 -15 -20 0 -30 -5 -30 -15 0 -8 -7 -15 -15 -15 -8 0 -15 -7
-15 -15 0 -8 -9 -15 -20 -15 -11 0 -20 -7 -20 -15 0 -10 -10 -15 -30 -15 -20
0 -30 -5 -30 -15 0 -8 -7 -15 -15 -15 -8 0 -15 -7 -15 -15 0 -8 -9 -15 -20
-15 -16 0 -20 -7 -20 -35 0 -24 -5 -35 -15 -35 -8 0 -15 -7 -15 -15 0 -11 -12
-15 -50 -15 -38 0 -50 -4 -50 -15 0 -8 -7 -15 -15 -15 -8 0 -15 -7 -15 -15 0
-8 -7 -15 -15 -15 -8 0 -15 -7 -15 -15 0 -8 -7 -15 -15 -15 -8 0 -15 -7 -15
-15 0 -8 -9 -15 -20 -15 -11 0 -20 -7 -20 -15 0 -8 -7 -15 -15 -15 -8 0 -15
-7 -15 -15 0 -10 -10 -15 -30 -15 -20 0 -30 -5 -30 -15 0 -8 -9 -15 -20 -15
-16 0 -20 -7 -20 -30 0 -20 -5 -30 -15 -30 -8 0 -15 -7 -15 -15 0 -8 -7 -15
-15 -15 -8 0 -15 -7 -15 -15 0 -8 -7 -15 -15 -15 -8 0 -15 -7 -15 -15 0 -8 -9
-15 -20 -15 -13 0 -20 -7 -20 -20 0 -13 7 -20 20 -20 11 0 20 -7 20 -15 0 -11
12 -15 45 -15 33 0 45 4 45 15 0 8 9 15 20 15 13 0 20 7 20 20 0 11 7 20 15
20 8 0 15 7 15 15 0 8 7 15 15 15 10 0 15 10 15 30 0 28 3 30 35 30 24 0 35 5
35 15 0 8 7 15 15 15 8 0 15 7 15 15 0 8 7 15 15 15 8 0 15 7 15 15 0 8 7 15
15 15 8 0 15 7 15 15 0 8 9 15 20 15 16 0 20 7 20 30 0 29 2 30 45 30 33 0 45
4 45 15 0 10 11 15 35 15 32 0 35 2 35 30 0 20 5 30 15 30 10 0 15 11 15 35 0
33 2 35 35 35 24 0 35 5 35 15 0 10 10 15 30 15 20 0 30 5 30 15 0 8 7 15 15
15 8 0 15 7 15 15 0 8 9 15 20 15 11 0 20 7 20 15 0 10 10 15 30 15 27 0 30 3
30 30 0 29 1 30 50 30 38 0 50 4 50 15 0 8 7 15 15 15 8 0 15 7 15 15 0 10 11
15 35 15 24 0 35 5 35 15 0 8 7 15 15 15 8 0 15 7 15 15 0 10 10 15 30 15 20
0 30 5 30 15 0 8 9 15 20 15 11 0 20 7 20 15 0 10 10 15 30 15 20 0 30 5 30
15 0 10 11 15 35 15 28 0 35 4 35 20 0 11 7 20 15 20 8 0 15 7 15 15 0 8 7 15
15 15 8 0 15 7 15 15 0 10 11 15 35 15 24 0 35 5 35 15 0 10 10 15 30 15 20 0
30 5 30 15 0 8 7 15 15 15 8 0 15 7 15 15 0 10 11 15 35 15 24 0 35 5 35 15 0
8 7 15 15 15 8 0 15 7 15 15 0 10 11 15 35 15 24 0 35 5 35 15 0 8 7 15 15 15
8 0 15 7 15 15 0 10 10 15 30 15 20 0 30 5 30 15 0 12 14 15 65 15 51 0 65 3
65 15 0 10 11 15 35 15 24 0 35 5 35 15 0 11 12 15 50 15 43 0 50 3 50 20 0
11 7 20 15 20 8 0 15 7 15 15 0 11 12 15 50 15 38 0 50 4 50 15 0 10 10 15 30
15 20 0 30 5 30 15 0 11 12 15 50 15 38 0 50 4 50 15 0 12 14 15 65 15 51 0
65 -3 65 -15 0 -10 10 -15 30 -15 l30 0 0 60 c0 53 2 60 20 60 16 0 20 7 20
30 0 23 -4 30 -20 30 -16 0 -20 7 -20 30 l0 30 195 0 c167 0 195 -2 195 -15 0
-12 14 -15 65 -15 51 0 65 -3 65 -15 0 -13 25 -15 165 -15 140 0 165 -2 165
-15 0 -11 12 -15 50 -15 38 0 50 -4 50 -15 0 -11 12 -15 50 -15 38 0 50 -4 50
-15 0 -8 7 -15 15 -15 8 0 15 -7 15 -15 0 -11 12 -15 50 -15 38 0 50 -4 50
-15 0 -11 12 -15 45 -15 33 0 45 -4 45 -15 0 -11 12 -15 50 -15 38 0 50 -4 50
-15 0 -11 12 -15 50 -15 38 0 50 -4 50 -15 0 -8 7 -15 15 -15 8 0 15 -7 15
-15 0 -10 11 -15 35 -15 28 0 35 -4 35 -20 0 -17 7 -20 45 -20 33 0 45 -4 45
-15 0 -10 11 -15 35 -15 24 0 35 -5 35 -15 0 -11 12 -15 50 -15 38 0 50 -4 50
-15 0 -10 10 -15 30 -15 27 0 30 -3 30 -30 0 -20 5 -30 15 -30 8 0 15 -7 15
-15 0 -10 11 -15 35 -15 24 0 35 -5 35 -15 0 -8 7 -15 15 -15 8 0 15 -7 15
-15 0 -12 14 -15 65 -15 51 0 65 -3 65 -15 0 -8 7 -15 15 -15 8 0 15 -7 15
-15 0 -10 11 -15 35 -15 24 0 35 -5 35 -15 0 -11 12 -15 50 -15 38 0 50 -4 50
-15 0 -10 10 -15 30 -15 23 0 30 -4 30 -20 0 -17 7 -20 50 -20 38 0 50 -4 50
-15 0 -12 16 -15 80 -15 64 0 80 -3 80 -15 0 -11 12 -15 50 -15 49 0 50 -1 50
-30 0 -27 3 -30 30 -30 20 0 30 -5 30 -15 0 -11 12 -15 50 -15 38 0 50 -4 50
-15 0 -11 12 -15 50 -15 38 0 50 -4 50 -15 0 -11 12 -15 50 -15 38 0 50 -4 50
-15 0 -11 12 -15 45 -15 33 0 45 -4 45 -15 0 -11 12 -15 50 -15 38 0 50 -4 50
-15 0 -8 7 -15 15 -15 8 0 15 -7 15 -15 0 -10 11 -15 35 -15 24 0 35 -5 35
-15 0 -10 10 -15 30 -15 20 0 30 -5 30 -15 0 -10 11 -15 35 -15 28 0 35 -4 35
-20 0 -18 7 -20 65 -20 51 0 65 -3 65 -15 0 -8 7 -15 15 -15 8 0 15 -7 15 -15
0 -8 7 -15 15 -15 8 0 15 -7 15 -15 0 -11 12 -15 50 -15 49 0 50 1 50 30 0 20
-5 30 -15 30 -10 0 -15 11 -15 35 0 33 -2 35 -35 35 -24 0 -35 5 -35 15 0 8
-7 15 -15 15 -8 0 -15 7 -15 15 0 12 -14 15 -65 15 -51 0 -65 3 -65 15 0 10
-10 15 -30 15 -20 0 -30 5 -30 15 0 10 -11 15 -35 15 -24 0 -35 5 -35 15 0 10
-10 15 -30 15 -20 0 -30 5 -30 15 0 8 -9 15 -20 15 -11 0 -20 7 -20 15 0 12
-14 15 -65 15 -51 0 -65 3 -65 15 0 10 -10 15 -30 15 -20 0 -30 5 -30 15 0 11
-12 15 -50 15 -38 0 -50 4 -50 15 0 11 -12 15 -50 15 -38 0 -50 4 -50 15 0 11
-12 15 -45 15 -33 0 -45 4 -45 15 0 8 -9 15 -20 15 -11 0 -20 7 -20 15 0 10
-10 15 -30 15 -23 0 -30 4 -30 20 0 16 -7 20 -35 20 -24 0 -35 5 -35 15 0 12
-16 15 -80 15 -64 0 -80 3 -80 15 0 11 -12 15 -50 15 -38 0 -50 4 -50 15 0 10
-10 15 -30 15 -20 0 -30 5 -30 15 0 11 -12 15 -50 15 -38 0 -50 4 -50 15 0 8
-7 15 -15 15 -8 0 -15 7 -15 15 0 10 -11 15 -35 15 -24 0 -35 5 -35 15 0 11
-12 15 -45 15 -33 0 -45 4 -45 15 0 10 -11 15 -35 15 -24 0 -35 5 -35 15 0 8
-7 15 -15 15 -8 0 -15 7 -15 15 0 8 -7 15 -15 15 -8 0 -15 7 -15 15 0 8 -9 15
-20 15 -11 0 -20 7 -20 15 0 10 -10 15 -30 15 -23 0 -30 4 -30 20 0 17 -7 20
-50 20 -38 0 -50 4 -50 15 0 10 -10 15 -30 15 -20 0 -30 5 -30 15 0 11 -12 15
-50 15 -38 0 -50 4 -50 15 0 10 -11 15 -35 15 -24 0 -35 5 -35 15 0 8 -7 15
-15 15 -8 0 -15 7 -15 15 0 11 -12 15 -50 15 -38 0 -50 4 -50 15 0 11 -12 15
-45 15 -33 0 -45 4 -45 15 0 11 -12 15 -50 15 -38 0 -50 4 -50 15 0 11 -12 15
-50 15 -38 0 -50 4 -50 15 0 8 -7 15 -15 15 -8 0 -15 7 -15 15 0 11 -12 15
-50 15 -38 0 -50 4 -50 15 0 11 -12 15 -50 15 -38 0 -50 4 -50 15 0 13 -24 15
-160 15 -136 0 -160 2 -160 15 0 12 -14 15 -65 15 -58 0 -65 2 -65 20 0 19 -7
20 -215 20 l-215 0 0 30 c0 23 4 30 20 30 19 0 20 7 20 245 0 211 2 245 15
245 13 0 15 34 15 245 0 211 2 245 15 245 13 0 15 27 15 185 0 158 2 185 15
185 13 0 15 36 15 260 l0 260 150 0 c127 0 150 -2 150 -15 0 -10 10 -15 30
-15 20 0 30 -5 30 -15 0 -11 12 -15 50 -15 38 0 50 -4 50 -15 0 -12 16 -15 80
-15 64 0 80 -3 80 -15 0 -12 14 -15 65 -15 51 0 65 -3 65 -15 0 -11 12 -15 50
-15 38 0 50 -4 50 -15 0 -10 11 -15 35 -15 24 0 35 -5 35 -15 0 -10 10 -15 30
-15 23 0 30 -4 30 -20 0 -16 7 -20 35 -20 24 0 35 -5 35 -15 0 -8 7 -15 15
-15 8 0 15 -7 15 -15 0 -12 14 -15 65 -15 51 0 65 -3 65 -15 0 -8 7 -15 15
-15 8 0 15 -7 15 -15 0 -10 11 -15 35 -15 24 0 35 -5 35 -15 0 -8 7 -15 15
-15 8 0 15 -7 15 -15 0 -10 10 -15 30 -15 20 0 30 -5 30 -15 0 -10 11 -15 35
-15 24 0 35 -5 35 -15 0 -10 10 -15 30 -15 20 0 30 -5 30 -15 0 -8 9 -15 20
-15 11 0 20 -7 20 -15 0 -10 10 -15 30 -15 20 0 30 -5 30 -15 0 -10 11 -15 35
-15 24 0 35 -5 35 -15 0 -8 7 -15 15 -15 8 0 15 -7 15 -15 0 -8 7 -15 15 -15
8 0 15 -9 15 -20 0 -17 7 -20 50 -20 38 0 50 -4 50 -15 0 -10 10 -15 30 -15
20 0 30 -5 30 -15 0 -10 11 -15 35 -15 24 0 35 -5 35 -15 0 -8 7 -15 15 -15 8
0 15 -7 15 -15 0 -8 7 -15 15 -15 8 0 15 -7 15 -15 0 -10 11 -15 35 -15 24 0
35 -5 35 -15 0 -11 12 -15 50 -15 38 0 50 -4 50 -15 0 -8 7 -15 15 -15 8 0 15
-7 15 -15 0 -8 7 -15 15 -15 8 0 15 -7 15 -15 0 -8 7 -15 15 -15 8 0 15 -7 15
-15 0 -8 9 -15 20 -15 11 0 20 -7 20 -15 0 -10 10 -15 30 -15 20 0 30 -5 30
-15 0 -10 11 -15 35 -15 24 0 35 -5 35 -15 0 -8 7 -15 15 -15 8 0 15 -9 15
-20 0 -11 7 -20 15 -20 8 0 15 -7 15 -15 0 -8 7 -15 15 -15 8 0 15 -7 15 -15
0 -8 9 -15 20 -15 11 0 20 -7 20 -15 0 -11 12 -15 45 -15 33 0 45 -4 45 -15 0
-10 11 -15 35 -15 35 0 35 0 35 45 0 33 -4 45 -15 45 -8 0 -15 7 -15 15 0 11
-12 15 -50 15 -43 0 -50 3 -50 20 0 11 -7 20 -15 20 -8 0 -15 7 -15 15 0 8 -9
15 -20 15 -11 0 -20 7 -20 15 0 8 -7 15 -15 15 -8 0 -15 7 -15 15 0 8 -7 15
-15 15 -8 0 -15 7 -15 15 0 10 -11 15 -35 15 -24 0 -35 5 -35 15 0 8 -7 15
-15 15 -8 0 -15 7 -15 15 0 8 -7 15 -15 15 -8 0 -15 7 -15 15 0 10 -11 15 -35
15 -24 0 -35 5 -35 15 0 8 -7 15 -15 15 -8 0 -15 7 -15 15 0 8 -7 15 -15 15
-8 0 -15 7 -15 15 0 11 -12 15 -50 15 -38 0 -50 4 -50 15 0 10 -10 15 -30 15
-20 0 -30 5 -30 15 0 8 -9 15 -20 15 -11 0 -20 7 -20 15 0 8 -7 15 -15 15 -8
0 -15 9 -15 20 0 16 -7 20 -30 20 -20 0 -30 5 -30 15 0 10 -11 15 -35 15 -24
0 -35 5 -35 15 0 10 -10 15 -30 15 -20 0 -30 5 -30 15 0 10 -11 15 -35 15 -24
0 -35 5 -35 15 0 8 -7 15 -15 15 -8 0 -15 7 -15 15 0 10 -11 15 -35 15 -24 0
-35 5 -35 15 0 10 -10 15 -30 15 -20 0 -30 5 -30 15 0 8 -7 15 -15 15 -8 0
-15 7 -15 15 0 10 -11 15 -35 15 -24 0 -35 5 -35 15 0 10 -10 15 -30 15 -20 0
-30 5 -30 15 0 8 -9 15 -20 15 -11 0 -20 7 -20 15 0 10 -10 15 -30 15 -20 0
-30 5 -30 15 0 10 -11 15 -35 15 -24 0 -35 5 -35 15 0 8 -7 15 -15 15 -8 0
-15 9 -15 20 0 18 -7 20 -65 20 -51 0 -65 3 -65 15 0 8 -7 15 -15 15 -8 0 -15
7 -15 15 0 10 -11 15 -35 15 -24 0 -35 5 -35 15 0 10 -10 15 -30 15 -20 0 -30
5 -30 15 0 10 -11 15 -35 15 -24 0 -35 5 -35 15 0 11 -12 15 -45 15 -33 0 -45
4 -45 15 0 12 -14 15 -65 15 -51 0 -65 3 -65 15 0 12 -16 15 -85 15 -69 0 -85
3 -85 15 0 10 -10 15 -30 15 -20 0 -30 5 -30 15 0 11 -12 15 -50 15 -38 0 -50
4 -50 15 0 13 -25 15 -165 15 l-165 0 0 170 0 170 50 0 c49 0 50 1 50 30 0 20
-5 30 -15 30 -8 0 -15 7 -15 15 0 10 -11 15 -35 15 l-35 0 0 890 c0 784 -2
890 -15 890 -8 0 -15 9 -15 20 0 11 -7 20 -15 20 -8 0 -15 -9 -15 -20z"/>
</g>
</svg>
