<?xml version="1.0" standalone="no"?>
<!DOCTYPE svg PUBLIC "-//W3C//DTD SVG 20010904//EN"
 "http://www.w3.org/TR/2001/REC-SVG-20010904/DTD/svg10.dtd">
<svg version="1.0" xmlns="http://www.w3.org/2000/svg"
 width="1965.000000pt" height="1777.000000pt" viewBox="0 0 1965.000000 1777.000000"
 preserveAspectRatio="xMidYMid meet">
<metadata>
Created by potrace 1.16, written by Peter Selinger 2001-2019
</metadata>
<g transform="translate(0.000000,1777.000000) scale(0.100000,-0.100000)"
fill="#000000" stroke="none">
<path d="M10620 16850 l0 -113 -117 7 c-65 3 -187 9 -270 13 -84 3 -153 10
-153 15 0 11 -787 10 -792 -1 -1 -5 -70 -15 -153 -22 -82 -7 -152 -16 -155
-20 -6 -8 -158 -29 -212 -29 -21 0 -38 -4 -38 -8 0 -5 -31 -14 -70 -21 -38 -7
-70 -16 -70 -20 0 -4 -27 -13 -60 -20 -33 -8 -60 -17 -60 -20 0 -4 -16 -13
-35 -20 -19 -7 -35 -16 -35 -21 0 -4 -31 -14 -70 -21 -38 -7 -70 -15 -70 -19
0 -3 -22 -12 -50 -19 -27 -7 -50 -17 -50 -21 0 -5 -15 -14 -34 -20 -19 -6 -37
-17 -39 -25 -3 -7 -19 -16 -36 -20 -17 -4 -31 -10 -31 -15 0 -4 -18 -11 -40
-15 -22 -4 -47 -13 -54 -21 -8 -8 -19 -14 -23 -14 -5 0 -18 -8 -29 -18 -10
-10 -35 -24 -54 -32 -19 -8 -41 -20 -48 -27 -7 -7 -20 -13 -27 -13 -7 0 -20
-6 -27 -12 -7 -7 -30 -19 -51 -26 -21 -8 -54 -28 -73 -45 -18 -18 -48 -43 -65
-57 -17 -14 -37 -30 -43 -36 -6 -6 -23 -14 -37 -17 -14 -4 -45 -24 -68 -44
-22 -21 -53 -47 -67 -58 -15 -11 -37 -30 -49 -42 -12 -13 -28 -23 -34 -23 -6
0 -14 -7 -17 -15 -4 -8 -12 -15 -20 -15 -7 0 -19 -8 -26 -18 -7 -11 -23 -24
-36 -31 -22 -12 -42 -28 -87 -71 -12 -11 -26 -20 -33 -20 -7 0 -12 -5 -12 -10
0 -6 -8 -14 -17 -17 -10 -4 -27 -16 -39 -27 -12 -12 -33 -30 -48 -41 -14 -11
-44 -36 -66 -55 -22 -19 -54 -46 -71 -60 -53 -42 -109 -101 -109 -115 0 -7 -7
-15 -15 -19 -8 -3 -20 -17 -25 -31 -5 -14 -15 -25 -22 -25 -7 0 -22 -14 -33
-30 -11 -16 -23 -30 -28 -30 -12 0 -111 -104 -125 -132 -8 -14 -24 -37 -37
-53 -13 -15 -29 -44 -36 -64 -7 -20 -18 -40 -25 -44 -8 -4 -21 -22 -30 -40
-10 -18 -25 -38 -35 -45 -11 -7 -19 -19 -19 -27 0 -8 -6 -18 -13 -22 -14 -8
-47 -73 -47 -92 0 -5 -6 -14 -13 -18 -7 -4 -21 -25 -31 -45 -9 -21 -21 -38
-26 -38 -10 0 -50 -80 -50 -99 0 -6 -4 -11 -8 -11 -5 0 -17 -19 -28 -42 -10
-24 -24 -46 -30 -50 -6 -4 -17 -22 -25 -40 -7 -18 -16 -35 -19 -38 -12 -10
-38 -76 -45 -112 -4 -21 -10 -38 -14 -38 -3 0 -15 -28 -26 -62 -10 -35 -22
-65 -25 -68 -11 -9 -38 -133 -46 -207 -3 -40 -11 -73 -15 -73 -5 0 -9 -15 -9
-34 0 -19 -7 -70 -15 -113 -8 -43 -15 -117 -15 -165 0 -58 -4 -88 -12 -90 -19
-7 -18 -1105 1 -1117 11 -7 11 -9 0 -14 -10 -4 -10 -6 -1 -6 7 -1 12 -15 12
-36 0 -58 32 -300 40 -305 4 -3 18 -52 30 -110 12 -58 26 -107 29 -110 4 -3
15 -40 25 -82 9 -42 21 -78 25 -80 4 -2 18 -47 30 -100 12 -54 26 -98 30 -98
4 0 16 -26 27 -57 10 -32 21 -60 25 -63 3 -3 13 -36 22 -73 9 -37 22 -74 30
-81 7 -7 22 -41 32 -75 11 -33 23 -61 27 -61 5 0 8 -4 8 -10 0 -20 35 -90 45
-90 5 0 3 -5 -5 -10 -10 -6 -11 -10 -2 -10 6 0 12 -4 12 -10 0 -18 44 -110 52
-110 4 0 8 -6 8 -14 0 -8 13 -27 29 -43 15 -16 35 -43 44 -60 9 -17 23 -33 32
-36 8 -4 15 -13 15 -21 0 -8 14 -27 30 -43 17 -15 30 -33 30 -39 0 -7 11 -22
25 -35 13 -13 25 -28 25 -33 0 -9 9 -20 110 -126 29 -30 59 -65 67 -77 9 -13
20 -23 26 -23 5 0 20 -10 33 -22 47 -46 61 -58 69 -58 9 0 27 -16 78 -67 17
-18 38 -33 44 -33 7 0 13 -5 13 -11 0 -5 14 -15 30 -20 17 -6 30 -15 30 -19 0
-5 16 -14 35 -20 19 -6 35 -16 35 -21 0 -5 6 -9 13 -9 7 0 22 -8 33 -19 11
-10 37 -24 57 -32 20 -7 37 -16 37 -20 0 -4 14 -10 31 -14 17 -4 32 -12 35
-19 3 -7 20 -19 39 -26 19 -8 35 -17 35 -20 0 -4 18 -13 40 -20 22 -7 40 -17
40 -21 0 -5 18 -13 40 -19 22 -6 40 -15 40 -20 0 -6 7 -10 15 -10 8 0 24 -9
34 -19 10 -10 35 -25 55 -32 20 -7 36 -16 36 -20 0 -4 23 -12 50 -19 28 -7 50
-15 50 -20 0 -4 20 -13 45 -20 25 -7 45 -16 45 -19 0 -4 20 -13 45 -20 25 -7
45 -17 45 -21 0 -5 16 -14 35 -21 19 -7 35 -16 35 -20 0 -4 32 -13 70 -20 39
-7 70 -16 70 -21 0 -4 8 -8 17 -8 19 0 86 -22 93 -31 3 -3 23 -12 45 -19 22
-7 42 -17 45 -21 3 -4 36 -14 73 -21 37 -7 67 -16 67 -20 0 -5 43 -8 96 -8 99
0 235 -17 244 -31 3 -5 50 -14 103 -21 53 -7 97 -15 97 -19 0 -4 36 -11 80
-15 55 -4 80 -11 80 -19 0 -8 -4 -15 -10 -17 -13 -4 -30 -282 -30 -493 0 -177
18 -415 32 -415 4 0 8 -18 8 -40 0 -29 -4 -40 -15 -40 -8 0 -15 -4 -15 -9 0
-5 -16 -15 -35 -21 -19 -6 -35 -16 -35 -21 0 -5 -6 -9 -13 -9 -7 0 -23 -9 -34
-19 -11 -11 -40 -25 -64 -32 -24 -7 -46 -16 -49 -20 -3 -4 -31 -12 -62 -19
-32 -6 -58 -15 -58 -19 0 -5 -18 -11 -39 -15 -22 -3 -46 -12 -53 -19 -7 -7
-32 -19 -55 -26 -24 -8 -43 -17 -43 -21 0 -4 -20 -13 -45 -20 -25 -7 -45 -16
-45 -20 0 -4 -20 -13 -45 -20 -25 -7 -45 -16 -45 -19 0 -4 -20 -13 -45 -20
-25 -7 -45 -17 -45 -21 0 -5 -25 -14 -55 -21 -30 -7 -55 -15 -55 -19 0 -9
-103 -30 -147 -30 -18 0 -33 -4 -33 -10 0 -5 -13 -10 -30 -10 -37 0 -133 -20
-140 -30 -3 -3 -32 -12 -64 -18 -33 -7 -62 -16 -65 -21 -3 -4 -36 -14 -73 -21
-38 -7 -68 -15 -68 -19 0 -4 -27 -13 -60 -20 -33 -8 -60 -17 -60 -22 0 -5 -9
-9 -20 -9 -11 0 -29 -9 -39 -19 -10 -10 -35 -25 -55 -32 -20 -7 -36 -16 -36
-20 0 -4 -25 -13 -55 -20 -30 -7 -55 -15 -55 -19 0 -4 -18 -12 -40 -19 -22 -6
-40 -15 -40 -20 0 -4 -18 -14 -40 -21 -22 -7 -40 -16 -40 -20 0 -3 -29 -13
-65 -20 -36 -7 -65 -16 -65 -20 0 -3 -16 -12 -35 -19 -19 -7 -35 -16 -35 -20
0 -4 -22 -13 -50 -20 -27 -7 -50 -17 -50 -21 0 -4 -22 -14 -50 -21 -27 -7 -50
-16 -50 -21 0 -4 -20 -13 -45 -19 -25 -6 -45 -15 -45 -20 0 -5 -20 -14 -45
-20 -25 -6 -45 -15 -45 -19 0 -5 -22 -14 -50 -21 -27 -7 -50 -16 -50 -20 0 -4
-20 -13 -45 -20 -25 -7 -45 -17 -45 -20 0 -4 -16 -13 -35 -19 -19 -6 -35 -16
-35 -21 0 -5 -11 -14 -25 -19 -14 -5 -25 -14 -25 -19 0 -5 -16 -15 -35 -21
-19 -6 -35 -15 -35 -20 0 -4 -12 -10 -28 -13 -15 -3 -41 -17 -57 -31 -17 -14
-33 -26 -37 -26 -5 0 -16 -7 -25 -16 -38 -34 -78 -64 -85 -64 -5 0 -16 -8 -27
-18 -36 -33 -66 -54 -93 -64 -16 -5 -28 -14 -28 -19 0 -5 -11 -14 -25 -19 -14
-5 -25 -14 -25 -20 0 -5 -5 -10 -11 -10 -6 0 -30 -19 -54 -43 -23 -23 -63 -60
-89 -82 -85 -72 -96 -82 -96 -92 0 -22 -44 -149 -54 -155 -6 -4 35 -8 91 -8
93 0 104 -2 127 -24 15 -13 26 -28 26 -33 0 -6 11 -22 25 -37 29 -31 39 -28
104 33 24 23 47 41 52 41 5 0 9 6 9 14 0 8 9 18 20 21 11 3 20 11 20 16 0 5
11 14 25 19 14 5 25 14 25 19 0 5 14 14 30 21 17 7 30 16 30 21 0 5 11 14 25
19 14 5 25 14 25 19 0 5 14 14 30 20 17 5 30 15 30 20 0 6 6 11 13 11 7 0 27
12 44 28 17 15 43 36 57 47 14 11 35 28 47 37 12 10 37 20 55 24 19 3 34 9 34
13 0 4 12 14 27 22 15 8 35 22 45 31 10 10 25 18 33 18 8 0 15 4 15 9 0 5 26
17 58 27 31 10 63 23 69 30 7 7 31 15 53 19 22 4 40 11 40 15 0 5 18 14 40 20
22 6 40 15 40 19 0 5 23 15 50 22 28 7 50 16 50 20 0 4 23 13 50 20 28 7 50
16 50 20 0 4 16 13 35 19 19 6 35 15 35 20 0 4 23 14 50 21 28 7 50 16 50 19
0 4 25 13 55 20 30 7 55 17 55 22 0 4 8 8 18 8 10 0 27 8 38 19 11 10 43 24
72 31 29 6 52 15 52 20 0 4 20 13 45 20 25 7 45 17 45 21 0 5 9 9 20 9 11 0
29 9 40 20 11 11 40 26 65 32 25 7 45 15 45 19 0 4 29 12 65 19 36 7 65 16 65
20 0 4 29 13 65 20 36 7 65 15 65 19 0 8 97 31 133 31 15 0 27 4 27 8 0 5 45
15 100 22 55 7 100 16 100 20 0 4 29 14 65 21 36 7 65 16 65 20 0 3 20 12 45
19 25 7 45 16 45 20 0 4 20 14 45 21 25 7 45 17 45 21 0 4 20 13 45 19 25 6
45 15 45 19 0 4 20 13 45 20 25 7 45 16 45 20 0 4 18 13 40 20 22 7 40 17 40
21 0 4 26 13 58 19 31 7 59 15 62 19 3 3 27 12 55 19 27 7 52 17 55 21 3 4 14
10 25 13 11 3 28 9 38 13 18 7 18 1 15 -121 -4 -131 -33 -324 -50 -335 -6 -4
-13 -302 -19 -715 -8 -679 -12 -764 -28 -764 -9 0 -31 -147 -41 -279 -4 -57
-12 -106 -18 -110 -5 -3 -12 -40 -16 -81 -16 -196 -24 -285 -25 -288 -3 -9
-137 12 -143 22 -11 15 -28 -12 -28 -45 0 -21 -6 -28 -29 -32 -15 -3 -44 -21
-63 -39 -51 -48 -77 -68 -104 -80 -13 -6 -24 -14 -24 -18 0 -3 -16 -12 -35
-20 -19 -8 -35 -17 -35 -21 0 -4 -8 -10 -19 -14 -10 -3 -31 -17 -47 -30 -16
-14 -35 -25 -41 -25 -7 0 -13 -5 -13 -11 0 -5 -13 -15 -30 -20 -16 -6 -30 -15
-30 -20 0 -5 -11 -14 -25 -19 -14 -5 -25 -14 -25 -19 0 -5 -13 -14 -30 -20
-16 -5 -30 -14 -30 -19 0 -5 -13 -15 -29 -22 -16 -6 -32 -18 -35 -26 -3 -8
-12 -14 -20 -14 -9 0 -20 -9 -26 -20 -6 -11 -16 -20 -22 -20 -6 0 -18 -7 -27
-15 -50 -47 -87 -75 -98 -75 -7 0 -13 -5 -13 -11 0 -5 -13 -15 -30 -20 -16 -6
-30 -15 -30 -19 0 -5 -16 -14 -35 -20 -19 -6 -35 -15 -35 -20 0 -4 -13 -13
-30 -20 -16 -7 -30 -16 -30 -20 0 -4 -18 -13 -40 -20 -22 -7 -40 -17 -40 -21
0 -4 -16 -13 -35 -19 -19 -6 -35 -15 -35 -19 0 -4 -16 -13 -35 -20 -19 -7 -35
-16 -35 -21 0 -4 -20 -14 -45 -21 -25 -7 -45 -17 -45 -21 0 -4 -20 -13 -45
-19 -25 -6 -45 -15 -45 -19 0 -4 -20 -13 -45 -20 -25 -7 -45 -16 -45 -19 0 -4
-17 -13 -37 -20 -20 -8 -46 -22 -57 -32 -11 -11 -26 -19 -33 -19 -7 0 -13 -4
-13 -9 0 -5 -16 -15 -35 -21 -19 -6 -35 -15 -35 -20 0 -4 -20 -14 -45 -21 -25
-7 -45 -17 -45 -20 0 -4 -16 -13 -35 -19 -19 -6 -35 -15 -35 -20 0 -4 -13 -13
-30 -19 -16 -5 -30 -14 -30 -19 0 -6 -10 -12 -22 -16 -23 -5 -54 -26 -89 -59
-11 -9 -22 -17 -27 -17 -12 0 -71 -51 -138 -117 -35 -35 -67 -63 -71 -63 -4 0
-17 -13 -28 -29 -11 -17 -27 -32 -37 -34 -10 -3 -21 -13 -25 -24 -7 -20 -43
-63 -85 -102 -16 -14 -28 -31 -28 -38 0 -6 -6 -16 -13 -20 -13 -8 -30 -40 -47
-85 -5 -16 -14 -28 -20 -28 -5 0 -10 -6 -10 -13 0 -7 -12 -25 -27 -42 -27 -28
-44 -52 -59 -85 -4 -8 -13 -19 -20 -25 -6 -5 -17 -27 -24 -47 -6 -21 -16 -38
-21 -38 -5 0 -9 -6 -9 -14 0 -8 -13 -28 -30 -44 -16 -17 -30 -34 -30 -37 0
-12 -34 -80 -46 -92 -7 -7 -15 -27 -19 -44 -4 -17 -13 -33 -21 -36 -8 -3 -14
-9 -14 -14 0 -9 -37 -67 -51 -79 -8 -7 -39 -77 -39 -87 0 -5 -11 -16 -25 -23
-14 -7 -25 -18 -25 -24 0 -6 -14 -24 -30 -40 -17 -16 -30 -35 -30 -43 0 -7 -4
-13 -9 -13 -5 0 -14 -20 -20 -45 -6 -25 -19 -53 -29 -63 -10 -10 -26 -35 -36
-57 -11 -22 -25 -45 -31 -52 -7 -7 -21 -53 -31 -103 -10 -49 -21 -90 -25 -90
-4 0 -12 -23 -19 -50 -7 -28 -18 -57 -26 -65 -21 -20 -45 -120 -51 -212 -3
-46 -10 -83 -14 -83 -5 0 -9 -9 -9 -20 0 -17 7 -20 40 -20 22 0 40 -4 40 -10
0 -5 12 -10 28 -10 15 0 22 -4 16 -8 -5 -4 -18 -23 -27 -43 -9 -20 -23 -39
-31 -42 -7 -3 -15 -14 -18 -24 -5 -18 -2 -18 43 -9 27 5 49 13 49 17 0 4 26
13 58 19 31 7 59 16 62 20 3 4 20 10 38 13 31 6 32 6 32 -28 0 -52 18 -42 25
12 19 155 36 248 45 251 5 2 17 28 26 58 8 30 19 54 23 54 8 0 26 68 36 138 4
23 13 49 20 56 8 7 17 25 21 40 3 15 14 32 24 39 10 7 24 33 31 57 7 25 25 58
41 74 15 15 28 33 28 38 0 6 18 28 40 49 22 22 43 53 47 70 3 17 19 43 34 59
16 16 29 32 29 37 0 4 11 21 24 36 14 16 33 54 42 85 10 31 28 68 41 82 13 14
23 30 23 36 0 7 6 14 14 17 8 3 22 24 32 46 10 23 21 41 26 41 4 0 8 5 8 11 0
19 33 84 47 92 7 4 20 22 29 40 10 18 25 38 35 45 11 7 19 20 19 28 0 8 7 17
15 20 8 4 15 11 15 18 1 35 71 129 152 205 61 56 108 105 108 112 0 4 8 10 18
13 9 3 33 19 52 36 19 16 41 30 48 30 6 0 12 5 12 10 0 6 12 16 27 23 15 6 36
20 45 29 10 10 25 18 33 18 8 0 15 4 15 10 0 5 18 15 40 21 22 7 40 15 40 19
0 4 18 13 40 20 22 7 40 17 40 21 0 4 16 13 35 19 19 6 35 16 35 21 0 6 14 15
30 20 17 6 30 14 30 18 0 4 18 14 40 21 22 7 40 16 40 20 0 4 20 13 45 20 25
7 45 16 45 20 0 4 20 13 45 20 25 7 45 16 45 20 0 4 13 10 29 13 16 3 35 12
43 20 7 8 30 20 51 28 20 7 37 16 37 20 0 4 16 13 35 19 19 6 35 15 35 19 0 4
16 13 35 20 19 7 35 16 35 20 0 4 16 13 35 20 19 7 35 16 35 21 0 5 16 14 35
21 19 7 35 16 35 20 0 4 14 12 30 19 17 7 30 16 30 20 0 5 14 13 30 19 17 5
37 16 44 23 7 7 28 24 45 38 18 14 40 33 49 43 9 9 22 17 29 17 7 0 17 9 23
20 6 11 17 20 26 20 8 0 17 6 20 14 3 8 19 20 35 26 16 7 29 17 29 22 0 5 14
14 30 19 17 6 30 15 30 20 0 5 11 14 25 19 25 9 36 17 74 50 9 8 29 21 44 29
15 8 27 18 27 23 0 4 7 8 15 8 8 0 23 8 33 18 10 10 33 24 52 32 19 8 41 22
48 32 7 10 17 18 23 18 9 0 19 7 80 63 20 17 49 39 65 47 16 8 35 24 43 34 8
11 22 27 30 36 22 23 40 51 47 73 4 9 10 17 14 17 8 0 40 118 40 150 0 11 -4
20 -10 20 -5 0 -10 5 -10 10 0 6 38 10 95 10 l95 0 0 54 c0 30 4 56 9 58 5 2
14 53 20 113 20 210 33 310 41 315 4 3 10 28 13 55 7 68 30 169 39 175 4 3 10
305 13 670 5 536 9 686 22 773 9 59 19 107 23 107 4 0 13 46 19 103 10 75 11
223 6 562 -12 852 -11 1013 4 1113 l15 92 210 1 c249 1 435 11 444 25 4 6 34
16 66 23 33 7 65 19 72 26 7 7 42 16 78 20 37 3 66 10 66 14 0 4 25 13 55 20
30 7 55 16 55 21 0 4 20 13 45 19 25 6 45 15 45 20 0 5 27 14 60 22 33 7 60
16 60 20 0 4 20 13 45 20 25 7 45 17 45 20 0 4 15 13 34 19 19 6 37 17 40 25
3 8 12 15 20 15 8 0 22 7 30 15 9 9 43 21 76 27 33 5 60 14 60 18 0 5 16 14
35 21 19 7 35 16 35 20 0 4 16 13 35 19 19 6 35 15 35 19 0 5 21 14 48 21 26
8 49 16 52 19 3 3 22 12 44 20 21 7 47 22 57 32 10 10 26 19 34 19 8 0 15 4
15 10 0 5 18 14 40 20 22 6 40 14 40 19 0 4 18 14 40 21 22 7 40 17 40 21 0 4
16 13 35 20 19 7 35 17 35 21 0 5 11 13 25 18 14 5 25 14 25 19 0 6 18 16 40
22 22 7 40 15 40 19 0 3 16 12 36 19 20 7 44 20 54 30 36 33 66 53 93 63 15 5
27 14 27 18 0 4 11 11 25 14 13 3 29 15 35 26 6 11 16 20 22 20 6 0 21 10 33
23 38 36 54 48 85 59 17 5 30 14 30 18 0 4 20 14 45 21 25 7 45 17 45 20 0 4
16 13 35 19 19 6 35 16 35 21 0 6 14 15 30 20 17 6 30 14 30 18 0 4 18 14 40
21 22 7 40 17 40 22 0 5 12 14 27 21 15 6 35 19 44 27 9 8 28 24 43 35 14 11
36 28 47 38 12 9 25 17 29 17 4 0 20 11 36 25 16 14 35 25 42 25 6 0 12 4 12
8 0 4 30 40 68 79 37 40 101 109 142 153 41 45 95 104 120 131 25 26 59 64 76
82 18 19 37 43 43 55 6 11 31 42 56 69 25 26 58 62 74 78 15 17 34 45 42 63 8
17 17 32 21 32 4 0 15 17 25 38 9 20 20 39 23 42 4 3 17 38 30 78 13 39 27 72
31 72 4 0 13 17 19 38 7 20 18 42 25 47 6 6 23 55 36 110 13 55 27 101 31 103
5 2 8 17 8 33 0 40 30 169 39 169 10 0 26 52 42 130 7 36 16 67 20 70 4 3 15
59 24 125 9 66 20 122 26 123 11 4 12 999 1 1004 -5 2 -16 43 -26 93 -9 49
-21 92 -25 95 -13 8 -33 89 -44 178 -6 45 -14 82 -19 82 -4 0 -8 10 -8 22 0
24 -30 110 -41 118 -3 3 -16 26 -28 53 -12 26 -25 47 -30 47 -5 0 -17 26 -27
58 -10 31 -24 63 -30 69 -7 7 -18 30 -25 50 -7 21 -25 50 -41 66 -15 16 -28
34 -28 40 0 7 -9 18 -19 24 -11 7 -22 26 -26 42 -4 17 -12 34 -19 38 -6 5 -20
27 -30 51 -11 23 -22 42 -26 42 -4 0 -13 12 -19 28 -6 15 -27 42 -46 61 -19
19 -35 37 -35 41 0 9 -46 65 -77 93 -13 11 -23 27 -23 34 0 8 -6 16 -14 19 -7
3 -24 26 -37 52 -13 26 -29 52 -35 59 -6 6 -17 26 -25 45 -14 34 -21 45 -54
83 -25 28 -55 75 -62 98 -3 9 -9 17 -14 17 -4 0 -16 17 -25 38 -10 20 -24 41
-31 45 -7 4 -13 14 -13 21 0 7 -24 37 -54 68 -30 30 -61 69 -70 87 -9 17 -20
31 -25 31 -5 0 -11 8 -15 18 -11 34 -74 112 -91 112 -6 0 -16 9 -23 20 -7 11
-16 20 -22 20 -9 0 -60 47 -60 55 0 4 -36 44 -140 156 -25 26 -74 80 -110 120
-95 105 -128 137 -150 144 -11 4 -20 11 -20 16 0 5 -11 14 -23 18 -13 5 -30
23 -37 40 -7 17 -18 31 -24 31 -13 0 -53 31 -114 88 -25 23 -51 42 -58 42 -7
0 -17 6 -21 13 -4 7 -23 19 -40 26 -18 8 -33 16 -33 20 0 4 -16 13 -36 20 -20
7 -45 22 -55 32 -10 10 -26 19 -34 19 -8 0 -15 4 -15 9 0 5 -16 15 -35 21 -19
6 -35 15 -35 19 0 4 -18 14 -39 21 -22 7 -42 19 -45 26 -3 7 -21 16 -40 20
-20 3 -36 10 -36 14 0 4 -19 12 -42 19 -22 7 -47 18 -53 25 -7 7 -39 18 -71
26 -33 8 -61 16 -64 20 -3 3 -27 11 -55 18 -27 7 -51 17 -53 22 -2 4 -23 14
-48 21 -24 7 -44 16 -44 20 0 3 -28 12 -62 19 -35 7 -66 18 -69 23 -4 5 -50
12 -103 15 l-96 5 0 -113z m457 -419 c39 -6 69 -17 82 -30 12 -12 30 -21 41
-21 11 0 20 -4 20 -8 0 -4 20 -14 45 -21 25 -7 45 -17 45 -21 0 -5 16 -14 35
-21 19 -7 35 -16 35 -20 0 -4 16 -13 35 -19 19 -6 35 -16 35 -21 0 -5 7 -9 15
-9 8 0 23 -8 33 -18 10 -10 33 -24 52 -32 19 -8 41 -20 48 -27 7 -7 19 -13 26
-13 7 0 34 -19 59 -42 93 -86 119 -108 125 -108 5 0 43 -35 130 -122 20 -20
66 -69 102 -109 36 -39 85 -93 110 -119 25 -27 65 -71 90 -99 24 -28 49 -51
55 -51 5 0 19 -14 30 -30 11 -16 25 -30 30 -30 15 0 82 -74 90 -99 3 -12 10
-21 15 -21 5 0 17 -16 26 -35 18 -38 66 -95 81 -95 4 0 16 -18 26 -40 9 -22
22 -40 27 -40 6 0 15 -10 20 -22 15 -34 32 -58 66 -93 16 -18 38 -54 48 -81
10 -27 24 -53 30 -59 6 -5 20 -27 31 -47 11 -21 22 -38 25 -38 3 0 16 -21 30
-47 14 -26 34 -57 45 -68 16 -18 48 -57 75 -95 3 -3 13 -9 23 -13 9 -4 22 -18
27 -32 5 -14 13 -25 17 -25 5 0 16 -18 26 -40 9 -22 20 -40 24 -40 5 0 19 -25
33 -55 14 -30 28 -55 33 -55 4 0 15 -18 24 -39 10 -22 24 -42 33 -44 9 -2 22
-23 28 -46 7 -22 16 -41 20 -41 4 0 16 -25 27 -55 10 -30 21 -55 25 -55 3 0
13 -16 20 -36 8 -20 23 -42 33 -49 14 -10 22 -40 34 -121 9 -60 20 -111 23
-114 4 -3 17 -48 30 -100 13 -52 28 -98 34 -102 15 -10 26 -838 12 -933 -6
-38 -13 -72 -17 -75 -3 -3 -9 -34 -13 -70 -9 -79 -34 -192 -44 -200 -9 -6 -42
-106 -42 -126 0 -8 -4 -14 -9 -14 -4 0 -14 -42 -20 -92 -14 -108 -28 -168 -41
-168 -4 0 -16 -22 -25 -50 -9 -27 -20 -50 -24 -50 -5 0 -18 -32 -31 -72 -12
-39 -26 -76 -31 -82 -22 -29 -86 -102 -106 -121 -13 -12 -23 -27 -23 -32 0 -5
-24 -34 -52 -65 -51 -54 -156 -169 -208 -227 -14 -16 -36 -43 -50 -62 -14 -18
-51 -60 -82 -92 -32 -32 -58 -63 -58 -68 0 -6 -13 -15 -30 -20 -16 -6 -30 -15
-30 -20 0 -5 -6 -9 -12 -9 -13 0 -44 -23 -95 -67 -14 -12 -34 -25 -44 -28 -11
-4 -19 -10 -19 -15 0 -5 -16 -14 -35 -21 -19 -7 -35 -16 -35 -20 0 -4 -13 -12
-30 -19 -16 -7 -30 -16 -30 -20 0 -5 -16 -14 -35 -20 -19 -6 -35 -15 -35 -19
0 -3 -20 -13 -45 -20 -25 -7 -45 -17 -45 -21 0 -4 -13 -13 -30 -20 -16 -7 -30
-16 -30 -21 0 -4 -10 -11 -22 -15 -13 -4 -34 -17 -47 -30 -13 -13 -29 -24 -35
-24 -6 0 -17 -9 -24 -20 -7 -11 -17 -20 -23 -20 -5 0 -19 -9 -31 -20 -12 -11
-28 -20 -35 -20 -7 0 -13 -4 -13 -9 0 -5 -13 -14 -30 -20 -16 -5 -30 -14 -30
-19 0 -5 -13 -15 -30 -22 -16 -7 -30 -16 -30 -21 0 -5 -9 -9 -20 -9 -11 0 -28
-8 -38 -18 -10 -10 -33 -24 -52 -32 -19 -8 -42 -22 -52 -32 -10 -10 -25 -18
-33 -18 -8 0 -15 -4 -15 -9 0 -5 -13 -14 -30 -20 -16 -5 -30 -14 -30 -19 0 -4
-22 -15 -50 -22 -27 -7 -50 -17 -50 -21 0 -4 -13 -12 -30 -18 -16 -5 -30 -14
-30 -20 0 -5 -24 -17 -52 -27 -29 -9 -55 -20 -58 -23 -3 -4 -25 -13 -50 -21
-25 -8 -54 -22 -64 -32 -11 -10 -26 -18 -33 -18 -7 0 -13 -4 -13 -10 0 -5 -18
-15 -40 -21 -22 -7 -40 -15 -40 -19 0 -3 -29 -12 -65 -19 -36 -7 -65 -17 -65
-21 0 -4 -13 -13 -30 -20 -16 -7 -30 -16 -30 -20 0 -5 -16 -14 -35 -20 -19 -6
-35 -15 -35 -20 0 -4 -22 -14 -50 -21 -27 -7 -50 -16 -50 -21 0 -4 -8 -8 -17
-8 -23 0 -85 -23 -100 -36 -7 -7 -29 -15 -50 -19 -21 -4 -41 -11 -44 -16 -3
-5 -33 -15 -67 -21 -34 -6 -62 -15 -62 -18 0 -4 -22 -10 -50 -14 -27 -4 -55
-12 -62 -19 -31 -30 -119 -37 -489 -37 -239 0 -369 -4 -369 -10 0 -5 -7 -10
-15 -10 -8 0 -15 4 -15 8 0 5 -56 15 -125 22 -69 7 -125 16 -125 20 0 3 -39
12 -87 19 -49 7 -91 18 -95 24 -3 6 -71 12 -163 15 -103 3 -160 9 -168 17 -7
6 -36 18 -65 24 -28 7 -52 17 -52 21 0 4 -21 13 -47 20 -26 6 -51 16 -54 22
-4 5 -41 15 -83 21 -42 6 -76 15 -76 19 0 4 -6 8 -13 8 -7 0 -22 8 -33 19 -11
10 -38 25 -60 32 -21 8 -45 19 -51 26 -7 6 -31 14 -53 18 -22 4 -40 11 -40 16
0 5 -20 14 -45 20 -25 6 -45 14 -45 18 0 4 -16 13 -36 20 -20 7 -45 22 -55 32
-10 10 -26 19 -34 19 -8 0 -15 4 -15 9 0 6 -26 18 -57 28 -32 10 -64 23 -71
30 -7 7 -20 13 -28 13 -8 0 -17 7 -20 15 -4 8 -12 15 -18 15 -7 0 -22 9 -33
20 -12 11 -40 25 -62 32 -23 7 -41 16 -41 20 0 3 -16 12 -35 18 -19 6 -35 16
-35 21 0 6 -13 15 -30 20 -16 6 -30 14 -30 18 0 4 -17 13 -37 19 -25 8 -46 24
-62 46 -13 20 -32 38 -42 41 -10 4 -19 11 -19 16 0 5 -11 14 -25 19 -14 5 -25
14 -25 20 0 5 -11 12 -25 16 -14 3 -30 15 -36 26 -13 25 -39 55 -111 132 -32
33 -58 63 -58 67 0 3 -9 17 -21 30 -36 43 -54 64 -79 100 -33 46 -41 57 -67
85 -13 14 -23 29 -23 34 0 6 -5 9 -12 8 -7 -2 -16 17 -21 45 -5 26 -13 47 -18
47 -5 0 -9 7 -9 16 0 17 -30 86 -41 94 -3 3 -10 16 -14 30 -12 43 -39 100 -46
100 -4 0 -10 17 -13 38 -10 58 -30 122 -37 122 -4 0 -11 15 -14 33 -4 17 -11
37 -15 42 -4 6 -11 25 -15 43 -3 17 -10 32 -15 32 -4 0 -11 21 -15 48 -7 55
-26 112 -36 112 -4 0 -17 53 -29 118 -12 64 -25 119 -29 122 -10 7 -30 102
-38 180 -3 36 -9 67 -13 70 -39 26 -40 1335 -2 1359 6 3 19 72 28 151 10 80
21 146 26 148 4 2 8 15 8 28 0 30 40 148 51 152 5 2 9 14 9 26 0 31 20 89 34
101 7 6 23 34 36 63 13 28 27 52 31 52 4 0 13 17 19 38 7 20 17 42 24 47 14
13 33 43 46 73 5 12 13 22 17 22 5 0 16 18 26 40 9 22 21 40 27 40 5 0 10 5
10 11 0 19 40 99 50 99 5 0 17 16 26 35 9 19 20 35 25 35 5 0 18 20 29 45 11
25 25 45 30 45 6 0 10 7 10 15 0 18 25 59 57 95 13 14 23 28 23 32 0 5 7 8 15
8 8 0 20 9 27 20 7 11 17 20 22 20 11 0 66 58 92 97 32 49 57 76 98 108 14 11
44 36 66 55 22 19 52 44 66 55 15 11 35 28 45 38 11 9 23 17 29 17 5 0 15 9
22 20 7 11 18 20 25 20 6 0 18 8 25 18 7 11 23 24 36 31 22 12 42 28 87 71 12
11 25 20 30 20 6 0 16 9 23 20 7 11 18 20 25 20 7 0 18 9 25 20 7 11 18 20 25
20 6 0 21 13 32 30 11 16 32 35 47 41 16 6 28 14 28 18 0 4 16 13 36 20 20 7
44 20 54 30 10 9 29 25 43 36 14 11 26 25 27 31 0 7 20 18 45 25 25 7 45 17
45 20 0 4 16 13 35 19 19 6 35 15 35 19 0 4 17 13 37 20 20 8 46 22 57 32 11
11 26 19 33 19 7 0 13 4 13 9 0 5 20 14 45 20 25 6 45 15 45 19 0 4 20 13 45
20 25 7 45 17 45 22 0 6 14 16 30 21 17 6 30 14 30 19 0 4 27 13 60 19 33 7
60 15 60 19 0 4 23 13 52 20 28 6 54 15 57 19 10 13 50 33 66 33 8 0 15 3 15
8 0 4 28 13 62 19 33 7 64 16 67 21 3 5 60 14 126 21 65 6 122 17 126 23 5 7
61 15 141 20 73 5 135 13 136 18 5 15 909 14 914 -1 2 -7 86 -14 237 -19 129
-5 237 -13 240 -18 3 -5 42 -12 86 -16 44 -3 106 -9 138 -13 53 -5 57 -4 57
16 0 11 4 21 9 21 4 0 14 28 21 62 6 34 15 56 19 50 3 -6 34 -15 68 -21z"/>
<path d="M8650 15017 c-25 -6 -51 -17 -58 -24 -7 -7 -20 -13 -27 -13 -8 0 -19
-9 -26 -21 -8 -17 -17 -20 -39 -15 -22 4 -30 1 -35 -13 -3 -10 -23 -24 -45
-31 -22 -7 -40 -17 -40 -21 0 -4 -16 -13 -35 -19 -19 -6 -35 -16 -35 -21 0 -5
-6 -9 -13 -9 -7 0 -21 -6 -32 -13 -18 -14 -18 -15 0 -65 11 -29 22 -52 25 -52
4 0 15 -25 25 -55 11 -30 22 -55 26 -55 4 0 15 -22 24 -50 9 -27 20 -50 25
-50 4 0 10 -9 13 -21 5 -18 8 -19 28 -9 27 15 36 3 38 -49 1 -20 4 -61 9 -91
6 -48 10 -55 30 -54 12 0 95 1 183 2 l161 2 -4 66 c-2 36 -9 68 -15 72 -11 8
-27 176 -29 322 -2 124 -1 118 -26 122 -21 3 -24 12 -37 91 -15 96 -11 93 -91
74z"/>
<path d="M11381 14552 c1 -126 -1 -234 -5 -240 -4 -7 -13 -12 -21 -12 -26 0
-34 -32 -16 -59 20 -33 51 -70 74 -90 9 -8 17 -21 17 -27 0 -6 16 -26 35 -45
18 -18 37 -44 40 -57 10 -40 26 -51 60 -39 16 6 36 17 43 24 7 7 18 13 24 13
6 0 25 16 42 35 24 26 36 52 45 100 7 36 17 65 21 65 14 0 30 109 20 136 -6
14 -10 115 -10 225 l0 199 -186 0 -185 0 2 -228z"/>
<path d="M9698 13330 c-135 -127 -150 -144 -180 -201 -11 -21 -24 -39 -29 -39
-5 0 -9 -6 -9 -13 0 -7 -25 -39 -55 -71 -31 -32 -63 -73 -72 -90 -9 -17 -19
-33 -23 -36 -8 -6 -30 -46 -30 -55 0 -3 14 -11 30 -16 17 -6 30 -15 30 -20 0
-5 6 -9 13 -9 7 0 22 -8 33 -18 10 -10 35 -24 54 -32 19 -8 42 -22 52 -32 10
-10 25 -18 33 -18 8 0 15 -4 15 -9 0 -5 12 -14 28 -19 24 -9 31 -5 70 36 23
25 42 49 42 53 0 4 14 21 30 39 17 18 30 37 30 44 0 6 9 17 20 24 11 7 20 19
20 27 0 8 6 18 13 22 8 4 24 24 38 43 25 36 50 62 89 92 19 14 20 19 9 40 -6
12 -15 25 -19 28 -9 7 -40 76 -40 89 0 6 -4 11 -10 11 -5 0 -18 21 -30 47 -11
26 -24 50 -28 53 -5 3 -16 22 -25 43 -10 20 -24 37 -32 37 -7 0 -37 -23 -67
-50z"/>
<path d="M10520 11702 c0 -5 -18 -14 -40 -21 -22 -6 -40 -15 -40 -20 0 -4 -25
-13 -55 -20 -30 -7 -55 -16 -55 -19 0 -8 -72 -32 -95 -32 -8 0 -15 -4 -15 -10
0 -5 -11 -10 -24 -10 -31 0 -86 -20 -86 -31 0 -5 -9 -9 -19 -9 -11 0 -23 -4
-26 -10 -3 -5 -17 -10 -31 -10 -13 0 -24 -4 -24 -9 0 -5 -20 -12 -45 -15 -25
-4 -51 -13 -58 -21 -7 -7 -39 -18 -70 -25 -31 -6 -57 -15 -57 -19 0 -12 -65
-31 -107 -31 -23 0 -43 -5 -45 -11 -2 -7 -64 -14 -173 -18 -158 -7 -225 -1
-225 19 0 4 -20 13 -45 20 -25 7 -45 17 -45 21 0 5 -9 9 -20 9 -23 0 -70 20
-88 37 -7 7 -22 13 -32 13 -10 0 -25 7 -33 15 -8 8 -37 20 -64 27 -26 7 -50
16 -53 20 -3 4 -47 13 -98 20 -51 7 -92 16 -92 20 0 4 -20 8 -45 8 l-45 0 0
-41 c0 -41 -1 -41 -30 -35 -25 5 -30 2 -30 -14 0 -11 -4 -20 -8 -20 -5 0 -16
-45 -26 -100 -10 -55 -21 -100 -25 -100 -10 0 -33 -138 -26 -151 4 -5 13 -9
21 -9 8 0 22 -9 31 -20 10 -11 22 -20 28 -20 6 0 18 -9 27 -19 9 -10 34 -22
57 -26 23 -4 41 -11 41 -16 0 -5 96 -9 224 -9 217 0 280 -7 298 -34 11 -17
486 -15 497 2 5 8 45 17 100 22 55 6 98 16 107 24 7 8 32 17 54 21 22 4 40 11
40 16 0 5 9 9 20 9 21 0 72 20 81 32 3 5 33 13 67 19 34 6 62 15 62 19 0 5 16
14 35 20 19 6 35 15 35 20 0 4 32 14 70 20 39 6 70 16 70 20 0 5 25 14 55 21
30 7 55 15 55 19 0 4 21 13 48 21 26 7 53 19 61 26 7 8 26 17 42 20 15 3 30
11 32 18 7 15 -24 125 -34 125 -5 0 -18 32 -29 70 -11 39 -25 70 -29 70 -5 0
-14 23 -21 50 -9 38 -16 50 -31 50 -10 0 -19 -4 -19 -8z"/>
<path d="M9840 7592 l0 -197 50 -12 c28 -7 58 -19 66 -28 8 -8 22 -15 29 -15
7 0 20 -6 27 -13 7 -7 28 -19 46 -26 17 -7 32 -16 32 -20 0 -4 20 -12 45 -19
25 -7 45 -16 45 -22 0 -5 20 -15 45 -21 25 -6 45 -15 45 -19 0 -4 20 -13 45
-19 25 -6 45 -15 45 -20 0 -5 20 -14 45 -21 25 -7 45 -16 45 -21 0 -4 18 -14
40 -20 22 -7 40 -15 40 -19 0 -5 20 -14 45 -21 25 -7 45 -16 45 -20 0 -3 25
-12 55 -19 30 -7 55 -17 55 -21 0 -4 23 -13 50 -20 28 -7 50 -16 50 -19 0 -4
25 -13 55 -20 30 -7 55 -16 55 -20 0 -4 25 -13 55 -20 30 -7 55 -17 55 -21 0
-4 16 -13 35 -19 19 -6 35 -15 35 -19 0 -4 23 -14 50 -21 28 -7 50 -17 50 -20
0 -4 25 -13 55 -20 30 -7 55 -16 55 -20 0 -3 23 -12 50 -19 28 -7 50 -17 50
-21 0 -4 23 -14 50 -21 28 -7 50 -16 50 -20 0 -4 25 -15 55 -24 30 -10 55 -21
55 -25 0 -4 20 -13 45 -20 25 -7 45 -16 45 -20 0 -4 20 -13 45 -20 25 -7 45
-15 45 -19 0 -7 73 -31 95 -31 8 0 15 -4 15 -10 0 -5 9 -10 20 -10 27 0 73
-22 88 -42 7 -10 20 -18 28 -18 8 0 14 -4 14 -9 0 -5 16 -15 35 -22 19 -7 35
-17 35 -21 0 -4 12 -8 26 -8 17 0 40 -15 70 -45 24 -25 48 -45 54 -45 6 0 13
-7 16 -15 3 -8 21 -19 40 -25 19 -6 34 -15 34 -18 0 -4 19 -13 42 -20 23 -7
48 -22 56 -33 7 -10 20 -19 28 -19 8 0 14 -5 14 -10 0 -6 12 -16 28 -23 15 -6
33 -17 40 -24 7 -7 29 -15 50 -19 20 -4 43 -15 50 -26 7 -10 17 -18 23 -18 5
0 18 -9 29 -20 11 -11 27 -20 35 -20 8 0 15 -4 15 -9 0 -5 15 -15 34 -21 19
-6 37 -17 40 -25 3 -8 10 -15 16 -15 6 0 34 -24 63 -53 28 -29 60 -56 70 -60
9 -3 17 -13 17 -22 0 -8 6 -15 13 -15 13 0 50 -28 99 -73 16 -15 35 -26 41
-23 7 3 20 9 30 12 9 4 17 10 17 14 0 5 16 14 35 20 19 6 35 16 35 21 0 5 6 9
13 9 7 0 22 8 33 18 10 10 35 24 54 32 19 8 43 22 53 31 17 16 18 21 5 54 -7
21 -19 40 -25 42 -7 3 -13 11 -13 19 0 14 -87 104 -100 104 -5 0 -32 23 -60
50 -28 28 -55 50 -59 50 -4 0 -25 20 -47 45 -21 24 -44 45 -51 45 -7 0 -17 9
-23 20 -6 11 -17 20 -25 20 -7 0 -20 6 -27 13 -7 7 -26 18 -41 25 -27 12 -41
21 -77 53 -10 10 -34 23 -54 30 -20 7 -36 16 -36 21 0 4 -18 12 -40 18 -22 6
-40 15 -40 20 0 6 -6 10 -12 10 -7 0 -26 11 -42 25 -16 14 -32 25 -36 25 -4 0
-18 9 -31 21 -13 11 -36 23 -51 26 -16 3 -28 9 -28 13 0 5 -13 13 -30 19 -16
5 -30 14 -30 20 0 6 -16 18 -35 27 -19 9 -35 20 -35 25 0 5 -6 9 -13 9 -7 0
-22 8 -33 19 -11 10 -37 24 -57 32 -20 7 -37 16 -37 20 0 4 -16 13 -35 19 -19
6 -35 16 -35 21 0 6 -13 15 -30 20 -16 6 -30 14 -30 19 0 4 -20 13 -45 20 -25
7 -45 15 -45 19 0 3 -23 12 -52 19 -28 6 -54 16 -57 21 -3 5 -25 14 -48 21
-24 7 -43 16 -43 20 0 4 -20 13 -45 19 -25 6 -45 16 -45 21 0 5 -20 15 -45 21
-25 6 -45 15 -45 19 0 4 -20 13 -45 20 -25 7 -45 16 -45 20 0 4 -20 13 -45 20
-25 7 -45 16 -45 20 0 4 -25 13 -55 20 -30 7 -55 16 -55 20 0 3 -22 12 -50 19
-27 7 -50 16 -50 21 0 4 -20 13 -45 20 -25 7 -45 16 -45 20 0 4 -20 14 -45 21
-25 7 -45 16 -45 20 0 3 -25 12 -55 19 -30 7 -55 16 -55 20 0 4 -25 13 -55 20
-30 7 -55 16 -55 20 0 3 -22 12 -50 19 -27 7 -50 16 -50 21 0 4 -22 13 -50 20
-27 7 -50 15 -50 19 0 4 -18 13 -40 20 -22 6 -40 16 -40 20 0 5 -20 14 -45 21
-25 7 -45 16 -45 21 0 4 -18 13 -40 19 -22 6 -40 15 -40 20 0 4 -18 11 -40 15
-22 4 -46 12 -53 19 -6 6 -27 18 -44 25 -18 7 -33 16 -33 20 0 4 -20 12 -45
19 -25 7 -45 16 -45 22 0 5 -20 15 -45 21 -25 6 -45 15 -45 20 0 4 -18 13 -40
19 -22 6 -40 15 -40 19 0 7 -125 31 -160 31 -6 0 -10 -78 -10 -198z"/>
<path d="M9508 4943 c-14 -16 -47 -46 -72 -68 -62 -54 -96 -88 -96 -97 0 -5
-6 -8 -13 -8 -7 0 -24 -13 -37 -28 l-25 -28 22 -25 c13 -13 23 -28 23 -34 0
-6 8 -18 18 -26 32 -29 61 -68 83 -111 12 -24 25 -45 29 -48 4 -3 15 -20 25
-39 9 -19 28 -46 41 -60 13 -14 24 -29 24 -32 0 -3 9 -17 21 -30 46 -54 55
-65 70 -89 9 -14 38 -48 65 -76 70 -72 91 -98 110 -136 9 -18 20 -35 24 -38 4
-3 16 -21 26 -40 11 -19 43 -60 72 -90 28 -30 52 -57 52 -61 0 -3 11 -19 25
-35 14 -16 25 -34 25 -41 0 -7 6 -16 13 -20 7 -4 23 -30 37 -58 14 -27 28 -51
32 -53 4 -2 16 -20 25 -40 9 -20 20 -39 24 -42 3 -3 16 -25 29 -49 12 -24 33
-56 46 -70 13 -14 24 -31 24 -38 0 -7 4 -13 9 -13 5 0 20 -17 32 -37 13 -21
28 -42 35 -48 6 -5 18 -25 25 -42 8 -18 17 -33 22 -33 4 0 12 -10 17 -22 13
-30 30 -55 58 -86 12 -14 22 -31 22 -37 0 -7 7 -15 14 -18 8 -3 22 -19 30 -36
9 -16 35 -50 58 -74 72 -75 98 -105 98 -114 0 -4 16 -23 35 -42 19 -19 35 -37
35 -42 0 -4 11 -20 25 -35 14 -15 25 -31 25 -36 0 -5 24 -34 53 -64 74 -79
132 -142 207 -225 57 -63 88 -94 150 -152 8 -8 32 -33 52 -55 21 -23 42 -42
47 -42 6 0 18 -11 27 -25 9 -14 22 -25 30 -25 7 0 18 -9 24 -20 6 -11 17 -20
24 -20 7 0 23 -9 36 -20 13 -11 29 -20 36 -20 7 0 19 -6 26 -13 7 -7 29 -19
48 -27 19 -8 41 -20 48 -27 7 -7 19 -13 27 -13 7 0 20 -11 28 -24 19 -29 36
-46 72 -71 15 -11 36 -28 47 -38 10 -9 22 -17 27 -17 6 0 16 -8 23 -18 7 -10
28 -24 46 -31 17 -7 32 -17 32 -22 0 -4 15 -13 33 -19 17 -7 43 -27 57 -45 14
-18 40 -39 58 -46 17 -7 32 -16 32 -20 0 -3 14 -12 30 -19 17 -7 30 -16 30
-20 0 -5 14 -13 30 -19 17 -5 30 -14 30 -20 0 -5 14 -14 30 -20 17 -5 30 -15
30 -20 0 -6 18 -15 40 -21 22 -6 40 -15 40 -19 0 -5 20 -14 45 -20 25 -6 45
-15 45 -20 0 -5 14 -14 30 -21 17 -7 30 -15 30 -19 0 -4 16 -13 35 -20 19 -7
35 -16 35 -21 0 -4 20 -14 45 -21 25 -7 45 -16 45 -19 0 -4 21 -12 48 -18 32
-9 53 -21 66 -40 18 -27 58 -52 83 -52 7 0 13 -4 13 -9 0 -5 22 -15 50 -22 39
-10 53 -19 62 -41 7 -16 21 -31 31 -34 9 -3 22 -14 27 -25 6 -10 17 -19 25
-19 8 0 18 -6 22 -14 18 -33 88 -36 113 -5 3 3 26 12 53 20 26 7 47 17 47 21
0 4 18 12 40 18 22 6 40 15 40 20 0 6 7 10 15 10 25 0 65 23 65 37 0 7 -3 13
-7 13 -5 0 -16 20 -26 45 -11 25 -23 45 -28 45 -5 0 -9 5 -9 10 0 16 -78 90
-95 90 -8 0 -22 11 -31 25 -9 14 -20 25 -25 25 -5 0 -29 20 -55 45 -25 25 -51
45 -59 45 -7 0 -15 5 -17 11 -2 5 -22 14 -45 19 -23 6 -57 25 -79 45 -63 57
-67 60 -112 74 -23 8 -42 18 -42 23 0 4 -7 8 -16 8 -24 0 -114 33 -114 42 0 5
-6 8 -12 8 -7 0 -26 11 -42 25 -17 14 -40 28 -53 31 -13 4 -23 9 -23 14 0 4
-18 12 -40 19 -22 6 -40 16 -40 21 0 6 -8 10 -18 10 -10 0 -27 8 -38 18 -10
10 -34 25 -51 32 -18 8 -33 18 -33 21 0 4 -15 12 -32 20 -18 7 -37 19 -41 26
-4 7 -14 13 -21 13 -8 0 -21 11 -30 25 -9 14 -22 25 -29 25 -7 0 -18 9 -25 20
-7 11 -19 20 -27 20 -8 0 -15 4 -15 8 0 5 -12 15 -27 23 -16 8 -37 22 -47 31
-11 10 -26 18 -33 18 -7 0 -13 4 -13 8 0 5 -12 15 -27 23 -15 8 -49 35 -75 62
-27 26 -53 47 -58 47 -5 0 -15 9 -22 19 -8 11 -26 25 -41 32 -15 7 -27 15 -27
19 0 4 -15 11 -34 14 -18 4 -44 15 -56 26 -13 11 -29 20 -36 20 -7 0 -18 9
-24 20 -6 11 -17 20 -24 20 -8 0 -21 11 -30 25 -9 14 -21 25 -26 25 -10 0 -23
13 -130 131 -36 39 -85 93 -110 120 -25 26 -74 80 -110 120 -36 39 -80 87 -97
107 -18 19 -33 38 -33 42 0 4 -13 22 -30 40 -16 18 -30 36 -30 40 0 5 -19 29
-42 53 -72 75 -98 105 -98 114 0 4 -16 23 -35 42 -19 19 -35 40 -35 47 0 7 -8
18 -19 23 -10 6 -24 24 -31 41 -7 16 -16 30 -21 30 -5 0 -17 18 -26 40 -10 22
-21 40 -26 40 -4 0 -12 10 -17 23 -13 29 -30 54 -57 85 -13 14 -23 31 -23 37
0 7 -7 15 -15 19 -8 3 -23 21 -32 41 -9 19 -20 35 -23 35 -4 0 -15 19 -26 43
-10 23 -24 45 -30 50 -7 4 -15 21 -19 37 -4 17 -14 36 -24 42 -9 7 -25 30 -34
51 -10 20 -22 37 -26 37 -4 0 -16 18 -26 40 -10 22 -44 67 -76 101 -33 35 -59
68 -59 76 0 7 -4 13 -10 13 -5 0 -17 15 -26 33 -9 17 -20 34 -24 37 -4 3 -18
24 -30 48 -12 23 -26 42 -31 42 -5 0 -9 6 -9 13 0 6 -26 40 -57 74 -109 117
-133 144 -133 152 0 4 -12 22 -27 39 -44 48 -50 57 -73 103 -13 24 -26 46 -30
49 -4 3 -15 21 -25 40 -10 19 -24 39 -31 43 -8 4 -21 21 -29 37 -8 16 -26 40
-40 54 -14 14 -25 30 -25 36 0 19 -25 10 -52 -17z"/>
</g>
</svg>
